<svg width="20" height="20" viewBox="0 0 20 20" fill="none" xmlns="http://www.w3.org/2000/svg">
<g clip-path="url(#clip0_368_2877)">
<path d="M10 20.0002C15.5228 20.0002 20 15.5231 20 10.0002C20 4.4774 15.5228 0.000244141 10 0.000244141C4.47715 0.000244141 0 4.4774 0 10.0002C0 15.5231 4.47715 20.0002 10 20.0002Z" fill="#536BFF"/>
<path fill-rule="evenodd" clip-rule="evenodd" d="M9.0514 12.0572C8.69073 11.9735 8.35451 11.8523 8.03496 11.6879C7.92051 11.6288 7.80784 11.5655 7.69851 11.4975C7.37607 11.2961 7.27584 10.8808 7.46962 10.5612C7.66896 10.233 8.08207 10.1263 8.41184 10.3263C8.73629 10.5226 9.08007 10.6652 9.45362 10.7326C10.1887 10.8646 10.8794 10.743 11.523 10.3646C11.6543 10.2872 11.787 10.2266 11.9436 10.2275C12.2474 10.2292 12.5134 10.4237 12.6016 10.7128C12.6903 11.0041 12.5798 11.3195 12.3218 11.4855C11.9198 11.7441 11.4845 11.9263 11.021 12.0406C11.001 12.0452 10.9814 12.051 10.9534 12.0583C10.9723 12.0788 10.987 12.0948 11.0025 12.1103C11.4145 12.5223 11.8267 12.9337 12.2383 13.3463C12.479 13.5877 12.5296 13.9188 12.3698 14.1948C12.1398 14.5923 11.611 14.6583 11.2796 14.329C10.869 13.9206 10.4605 13.5103 10.0514 13.1012C10.0367 13.0866 10.023 13.0708 9.99029 13.0352C9.97673 13.0595 9.9694 13.083 9.95429 13.0981C9.54429 13.5097 9.13429 13.9206 8.72251 14.3303C8.44007 14.6121 8.00873 14.6103 7.7354 14.3295C7.4854 14.0726 7.47829 13.6646 7.72007 13.395C7.75273 13.3581 7.78829 13.3235 7.82296 13.2886C8.21629 12.895 8.6094 12.5021 9.00273 12.1083C9.01629 12.0946 9.03029 12.0792 9.0514 12.0572Z" fill="white"/>
<path fill-rule="evenodd" clip-rule="evenodd" d="M10.0044 5.45947C11.2944 5.45947 12.3468 6.51236 12.3466 7.80236C12.3464 9.09392 11.3039 10.1452 10.0053 10.1457C8.69927 10.147 7.66216 9.09414 7.66016 7.80681C7.65794 6.51503 8.70305 5.46303 10.0044 5.45947ZM10.9726 7.80458C10.973 7.27081 10.5413 6.83547 10.0102 6.83414C9.47194 6.83281 9.03349 7.26436 9.0326 7.79592C9.03172 8.32836 9.46349 8.77169 9.9846 8.77214C10.5368 8.77258 10.9722 8.34636 10.9726 7.80458Z" fill="white"/>
</g>
<defs>
<clipPath id="clip0_368_2877">
<rect width="20" height="20" fill="white"/>
</clipPath>
</defs>
</svg>
