<svg width="20" height="20" viewBox="0 0 20 20" fill="none" xmlns="http://www.w3.org/2000/svg">
<g clip-path="url(#clip0_368_2885)">
<path d="M10 20C15.5228 20 20 15.5228 20 10C20 4.47715 15.5228 0 10 0C4.47715 0 0 4.47715 0 10C0 15.5228 4.47715 20 10 20Z" fill="#536BFF"/>
<path fill-rule="evenodd" clip-rule="evenodd" d="M9.62019 14.3867H10.4053C10.4053 14.3867 10.6436 14.3594 10.7647 14.2305C10.878 14.1094 10.8741 13.8867 10.8741 13.8867C10.8741 13.8867 10.8585 12.8321 11.3468 12.6797C11.8272 12.5274 12.4483 13.6953 13.1046 14.1485C13.6007 14.4883 13.9757 14.4141 13.9757 14.4141L15.7296 14.3906C15.7296 14.3906 16.6475 14.336 16.21 13.6133C16.1749 13.5547 15.9561 13.0781 14.9053 12.1055C13.8077 11.086 13.9522 11.25 15.2764 9.4844C16.085 8.41018 16.4053 7.75393 16.3038 7.47268C16.2061 7.20315 15.6163 7.27736 15.6163 7.27736L13.6397 7.28908C13.6397 7.28908 13.4952 7.26955 13.3858 7.33205C13.2803 7.39455 13.21 7.54299 13.21 7.54299C13.21 7.54299 12.8975 8.37502 12.4796 9.08205C11.6007 10.5742 11.2491 10.6524 11.1046 10.5625C10.7686 10.3438 10.8546 9.69533 10.8546 9.23049C10.8546 7.78518 11.0733 7.17971 10.4288 7.02346C10.2139 6.97268 10.0577 6.93752 9.50691 6.93361C8.80378 6.9258 8.20612 6.93361 7.86628 7.10158C7.64362 7.21096 7.46784 7.45705 7.57331 7.46877C7.70222 7.4844 7.99909 7.5508 8.15534 7.76174C8.35847 8.03518 8.35066 8.65627 8.35066 8.65627C8.35066 8.65627 8.46784 10.3594 8.07722 10.5703C7.81159 10.7149 7.44441 10.418 6.66316 9.06643C6.26081 8.37111 5.96003 7.60549 5.96003 7.60549C5.96003 7.60549 5.90144 7.46096 5.79597 7.38674C5.66706 7.29299 5.49128 7.26565 5.49128 7.26565L3.61628 7.27736C3.61628 7.27736 3.33503 7.28518 3.22956 7.40627C3.13972 7.51565 3.22175 7.74221 3.22175 7.74221C3.22175 7.74221 4.6905 11.1797 6.35456 12.9102C7.88972 14.4922 9.62019 14.3867 9.62019 14.3867Z" fill="white"/>
</g>
<defs>
<clipPath id="clip0_368_2885">
<rect width="20" height="20" fill="white"/>
</clipPath>
</defs>
</svg>
