<svg width="22" height="22" viewBox="0 0 22 22" fill="none" xmlns="http://www.w3.org/2000/svg">
<path fill-rule="evenodd" clip-rule="evenodd" d="M12.6633 11.7185C12.7707 11.4749 12.8307 11.2037 12.8307 11.0817C12.8307 10.024 12.0098 9.1665 10.9974 9.1665C9.98494 9.1665 9.16406 10.024 9.16406 11.0817C9.16406 12.1393 10.0807 12.8332 10.9974 12.8332C11.5837 12.8332 12.1056 12.5461 12.4404 12.0991C12.5281 11.9822 12.6034 11.8546 12.6633 11.7185ZM10.9974 11.8756C11.2265 11.8756 11.436 11.7877 11.5971 11.6423C11.7914 11.467 11.877 11.2075 11.877 11.0817C11.877 10.5529 11.5041 10.1241 10.9974 10.1241C10.4907 10.1241 10.0764 10.5521 10.0764 11.081C10.0764 11.4461 10.4907 11.8756 10.9974 11.8756Z" fill="black"/>
<path fill-rule="evenodd" clip-rule="evenodd" d="M4.63141 11.1467C4.62355 11.1361 4.63926 11.1579 4.63141 11.1467C4.56997 11.0549 4.57151 10.9457 4.63168 10.8528C4.63609 10.846 4.64058 10.8389 4.64513 10.8317C6.4522 7.9496 8.69312 6.4165 11.0096 6.4165C13.3237 6.4165 15.5626 7.94547 17.3677 10.8218C17.402 10.8764 17.4193 10.9324 17.4193 10.9996C17.4193 11.07 17.3992 11.1292 17.3631 11.1865C15.5585 14.0573 13.3216 15.5832 11.0096 15.5832C8.68723 15.5832 6.44044 14.0428 4.63141 11.1467ZM6.03664 10.6507C5.88808 10.8525 5.88808 11.1466 6.03664 11.3484C7.58409 13.4502 9.32647 14.4373 11.0096 14.4373C12.6928 14.4373 14.4352 13.4502 15.9826 11.3484C16.1312 11.1466 16.1312 10.8525 15.9826 10.6507C14.4352 8.54897 12.6928 7.56241 11.0096 7.56241C9.32647 7.56241 7.58409 8.54897 6.03664 10.6507Z" fill="black"/>
</svg>
