<svg width="8" height="5" viewBox="0 0 8 5" fill="none" xmlns="http://www.w3.org/2000/svg">
<path d="M6.13203 0.156168L2.37851 3.65714L1.01083 2.38148C0.898334 2.28014 0.747667 2.22407 0.591277 2.22533C0.434887 2.2266 0.285288 2.28511 0.174699 2.38826C0.0641107 2.49141 0.00138153 2.63094 2.25476e-05 2.77681C-0.00133644 2.92268 0.0587836 3.0632 0.167434 3.16813L1.95681 4.83712C2.06867 4.94141 2.22035 5 2.37851 5C2.53667 5 2.68835 4.94141 2.80021 4.83712L6.97542 0.942816C7.08407 0.837891 7.14419 0.697362 7.14283 0.551494C7.14148 0.405627 7.07875 0.266093 6.96816 0.162945C6.85757 0.0597969 6.70797 0.00128858 6.55158 2.10307e-05C6.39519 -0.00124652 6.24452 0.0548282 6.13203 0.156168Z" fill="white"/>
</svg>
