<svg width="24" height="24" viewBox="0 0 24 24" fill="none" xmlns="http://www.w3.org/2000/svg">
<path d="M12.2669 5.75C8.96443 5.75 6.27861 8.43557 6.27734 11.7365C6.27686 12.8678 6.59343 13.9695 7.19269 14.9228L7.33509 15.1493L6.73027 17.3585L8.99625 16.7641L9.21482 16.8939C10.1341 17.4393 11.1878 17.728 12.262 17.7284H12.2645C15.5644 17.7284 18.2502 15.0426 18.2515 11.7413C18.2521 10.1416 17.6299 8.63738 16.4996 7.5057C15.3693 6.37412 13.866 5.75049 12.2669 5.75ZM15.7885 14.3107C15.6385 14.731 14.9194 15.1148 14.5736 15.1664C14.2635 15.2128 13.8711 15.2321 13.44 15.0951C13.1786 15.0122 12.8433 14.9014 12.4139 14.716C10.6084 13.9364 9.4292 12.1185 9.33924 11.9983C9.24927 11.8782 8.60429 11.0224 8.60429 10.1364C8.60429 9.25058 9.0693 8.81511 9.23426 8.63489C9.39918 8.45478 9.59421 8.4097 9.71419 8.4097C9.83417 8.4097 9.95429 8.41082 10.0591 8.41603C10.1696 8.42164 10.318 8.37407 10.4641 8.725C10.6141 9.08543 10.974 9.97134 11.0191 10.0615C11.0641 10.1515 11.0941 10.2566 11.0341 10.3768C10.9741 10.4968 10.9441 10.5719 10.8541 10.677C10.7641 10.7821 10.6651 10.9116 10.5841 10.9923C10.494 11.0821 10.4002 11.1795 10.5052 11.3596C10.6102 11.5399 10.9714 12.1292 11.5065 12.6065C12.1939 13.2196 12.7739 13.4097 12.9539 13.4998C13.1338 13.59 13.2388 13.5748 13.3438 13.4548C13.4488 13.3346 13.7938 12.9292 13.9137 12.749C14.0337 12.5689 14.1537 12.5989 14.3187 12.659C14.4836 12.7191 15.3686 13.1544 15.5485 13.2445C15.7285 13.3346 15.8485 13.3797 15.8935 13.4548C15.9385 13.5298 15.9385 13.8902 15.7885 14.3107Z" fill="white"/>
<path d="M12.0005 0C5.373 0 0 5.37203 0 11.9995C0 18.627 5.373 24 12.0005 24C18.6275 24 24.0005 18.627 24.0005 11.9995C24.0005 5.37203 18.6275 0 12.0005 0ZM12.2638 18.9454C12.2636 18.9454 12.264 18.9454 12.2638 18.9454H12.2609C11.0553 18.945 9.87066 18.6425 8.81862 18.0687L5.00005 19.0703L6.02198 15.3377C5.39162 14.2453 5.05994 13.0061 5.06048 11.7365C5.06204 7.76501 8.29347 4.53382 12.2638 4.53382C14.1907 4.5346 15.9993 5.28475 17.3593 6.6463C18.7192 8.0078 19.4678 9.81754 19.4671 11.7423C19.4654 15.7139 16.2338 18.9454 12.2638 18.9454Z" fill="white"/>
</svg>
