<svg width="24" height="24" viewBox="0 0 24 24" fill="none" xmlns="http://www.w3.org/2000/svg">
<path d="M20.4849 3.51478C18.3122 1.34255 15.3156 0 11.9999 0C8.68411 0 5.68753 1.34255 3.51478 3.51478C1.34231 5.68777 0 8.69095 0 11.9999C0 15.3157 1.34231 18.3122 3.51478 20.4852C5.68753 22.6576 8.68411 24 11.9999 24C15.3156 24 18.3122 22.6576 20.4849 20.4852C22.6574 18.3122 24 15.3157 24 11.9999C24 8.69095 22.6574 5.68777 20.4849 3.51478Z" fill="white"/>
<path fill-rule="evenodd" clip-rule="evenodd" d="M18.6391 8.65785C18.4598 8.5251 17.8154 8.5251 17.1775 8.5251C16.5262 8.53837 15.875 8.53837 15.7221 8.59823C15.5829 8.65124 15.2706 9.40879 14.8654 10.1859C14.3999 11.0635 13.8355 11.9137 13.4765 11.9C13.0048 11.9 13.118 10.4583 13.1511 9.38887C13.1575 8.69099 13.0447 8.46496 12.945 8.40557C12.6991 8.2326 12.0216 8.0669 12.0216 8.0669C12.0216 8.0669 9.98798 7.91376 9.70256 8.79084C10.0944 8.84409 10.759 8.72409 10.4999 11.4416C10.48 11.5748 10.1875 12.6909 9.24394 11.1825C9.00469 10.8041 8.10136 8.53832 7.78233 8.5251C6.7387 8.50499 5.70262 8.45859 5.34408 8.65785C5.00494 8.85735 5.79562 10.412 7.13128 12.4986C8.214 14.2126 9.36366 15.5417 11.357 15.8737C11.7356 15.9139 12.7059 15.9532 13.0183 15.8075C13.224 15.7076 12.9648 14.2327 13.676 14.0863C13.9883 14.0267 15.2038 15.6281 15.6622 15.8075C15.942 15.9203 16.553 15.9667 17.1775 15.94C17.8553 15.9203 18.6256 16.0068 18.6987 15.5417C18.8651 14.5251 16.6462 13.1957 16.5861 12.5714C16.5329 12.1197 17.3969 11.2892 17.8351 10.6512C18.3797 9.8804 18.9783 8.95035 18.6391 8.65785Z" fill="#6D61FE"/>
</svg>
