<svg width="87" height="113" viewBox="0 0 87 113" fill="none" xmlns="http://www.w3.org/2000/svg">
<g clip-path="url(#clip0_368_983)">
<path d="M0.804506 40.7221C0.839362 31.0165 0.827286 21.3096 0.931838 11.6049C0.977092 7.39195 1.35236 3.18232 1.41683 -1.03109C1.50632 -6.96118 6.03436 -10.5896 11.5058 -10.6451C23.9633 -10.7731 36.4245 -10.8706 48.8791 -10.6769C60.3782 -10.4977 71.8736 -9.97906 83.3661 -9.48598C86.474 -9.29661 89.5685 -8.92812 92.6336 -8.38072C96.1586 -7.8171 99.6073 -3.61066 99.7921 0.217443C99.9341 3.15286 100.048 6.09361 100.054 9.03236C100.078 24.5494 100.08 40.0661 100.06 55.5831C100.053 70.1454 100.041 84.7076 100.023 99.2698C99.9962 102.147 99.2284 104.969 97.7927 107.465C97.1505 108.714 96.1698 109.759 94.9617 110.481C93.7536 111.203 92.3664 111.574 90.9577 111.55C86.4873 111.65 82.0094 111.594 77.5469 111.837C62.5203 112.656 47.5181 111.671 32.5062 111.391C31.0055 111.405 29.5179 111.114 28.1343 110.534C26.7506 109.955 25.4998 109.1 24.4594 108.023C19.6603 103.36 14.4968 99.0706 9.51043 94.5977C7.6717 92.9475 5.97289 91.1393 4.09229 89.5408C2.09832 87.8459 1.36921 85.7287 1.35981 83.2129C1.33091 74.7788 1.28208 66.3456 1.21263 57.913C1.17023 52.1835 1.09868 46.454 1.03993 40.7249L0.804506 40.7221ZM33.8151 105.463C35.2263 105.59 36.4058 105.759 37.5894 105.793C47.6469 106.083 57.7049 106.358 67.7633 106.618C72.3101 106.736 76.8582 106.819 81.4059 106.902C83.7164 106.944 86.0317 107.045 88.3377 106.952C91.5522 106.823 92.5522 105.909 93.1706 102.765C93.7822 99.8008 93.9545 96.7628 93.6824 93.7484C93.5133 92.007 93.4391 90.2578 93.4597 88.5083C93.7507 60.4295 94.0536 32.3505 94.3686 4.27226C94.3907 3.71556 94.3758 3.15839 94.3239 2.60362C93.8803 -1.02425 91.9937 -3.45434 87.8687 -3.66668C72.4675 -4.46089 57.0599 -4.65143 41.6436 -4.57846C33.8979 -4.54138 26.1517 -4.5702 18.4055 -4.57634C16.4913 -4.57761 14.574 -4.67316 12.6633 -4.60493C9.32794 -4.48669 7.63999 -2.84049 7.63406 0.414855C7.62832 3.83035 7.85163 7.24579 7.86722 10.6623C7.8855 14.798 7.69675 18.9362 7.76341 23.0704C7.9277 33.2489 8.29973 43.4248 8.37226 53.6034C8.43039 61.7954 8.17126 69.9891 8.06081 78.1818C8.05343 78.7924 8.11076 79.4037 8.13807 80.0272C8.41044 80.0917 8.68803 80.1361 8.96658 80.1604C13.8375 80.1218 18.7076 80.0285 23.5776 80.0589C25.0933 80.066 26.6026 80.2587 28.0705 80.6325C31.0624 81.4074 31.9919 82.5761 32.2721 85.652C32.5244 88.4223 32.6766 91.2017 32.8923 93.9758C33.1807 97.6945 33.4887 101.412 33.8151 105.463ZM25.4375 85.8365L11.1087 86.546L27.2477 101.5L27.6086 101.298C26.8941 96.2117 26.1802 91.1253 25.4361 85.8365L25.4375 85.8365Z" fill="url(#paint0_linear_368_983)"/>
<path d="M51.2772 39.5718C42.6558 39.8145 34.0348 40.0749 25.4149 40.2828C23.9789 40.3205 22.5428 40.2279 21.1238 40.0071C19.6515 39.7745 19.0114 38.9918 18.9936 37.8422C18.9751 36.6177 19.7404 35.6848 21.227 35.4829C23.2008 35.1927 25.1909 35.022 27.1867 34.9714C38.8474 34.8027 50.5088 34.6461 62.1702 34.5895C67.4342 34.5632 72.7001 34.7354 77.9617 34.909C79.0753 34.9381 80.1689 35.2104 81.1656 35.7066C81.4678 35.9308 81.717 36.2191 81.8953 36.5498C82.0738 36.8809 82.1772 37.2465 82.1983 37.6213C82.2319 38.5346 81.3696 38.8848 80.4958 38.9258C79.8586 38.956 79.2194 38.9467 78.5817 38.9579L51.2768 39.4369L51.2772 39.5718Z" fill="url(#paint1_linear_368_983)"/>
<path d="M52.6338 23.2264C58.0205 23.0557 63.2085 22.825 68.3991 22.7488C72.2295 22.6925 76.0631 22.8074 79.8935 22.9092C81.1852 22.9436 81.9863 23.7338 82.011 24.743C82.0376 25.8302 81.3575 26.5101 80.0036 26.6412C79.0513 26.7343 78.0897 26.7497 77.1327 26.7739C70.5069 26.939 63.8802 27.0761 57.2549 27.2621C47.6732 27.5318 38.0928 27.8367 28.5115 28.1218C27.234 28.1595 25.9552 28.1995 24.6777 28.1808C22.5397 28.1501 21.5062 27.4832 21.4102 26.1471C21.3134 24.7876 22.2729 23.8403 24.325 23.6822C27.5065 23.4357 30.7015 23.2794 33.8923 23.2464C40.2039 23.1799 46.5169 23.2264 52.6338 23.2264Z" fill="url(#paint2_linear_368_983)"/>
<path d="M48.3947 45.5329C58.4367 45.478 68.4909 44.9795 78.5115 46.0272C79.3061 46.0807 80.0883 46.2509 80.8326 46.5332C81.0637 46.6435 81.2651 46.8067 81.4205 47.0095C81.576 47.2123 81.6809 47.4485 81.7266 47.6996C81.6687 47.9517 81.55 48.1856 81.3805 48.3814C81.2112 48.5772 80.9962 48.7283 80.7546 48.8223C79.9732 48.9688 79.176 49.0139 78.3831 48.9563C71.5263 48.9828 64.6676 48.9013 57.813 49.0446C46.8944 49.2734 35.9784 49.6548 25.0611 49.957C24.1044 49.9957 23.1463 49.9626 22.1954 49.858C20.9528 49.7031 20.1996 48.8981 20.1754 47.8796C20.1512 46.8611 20.8795 46.0194 22.0894 45.7729C22.6399 45.6883 23.1968 45.6562 23.7538 45.6771C30.7733 45.625 37.7921 45.5771 44.8108 45.5339C46.006 45.5255 47.2001 45.5329 48.3947 45.5329Z" fill="url(#paint3_linear_368_983)"/>
<path d="M50.6744 62.6277C48.2781 62.6277 45.8814 62.6653 43.4852 62.6122C42.2938 62.5888 41.1062 62.469 39.9344 62.2522C39.4513 62.1792 39.0111 61.9341 38.6955 61.5628C38.3794 61.1915 38.2095 60.7181 38.2165 60.2321C38.1563 59.7084 38.2907 59.1813 38.5942 58.7497C38.8976 58.3182 39.3491 58.0128 39.8635 57.8902C40.8448 57.553 41.8736 57.3751 42.9114 57.3631C48.4915 57.6174 54.0687 57.9675 59.6431 58.3047C60.0401 58.3444 60.4285 58.445 60.7944 58.6038C61.6907 58.9573 62.25 59.571 62.1678 60.6034C62.1565 61.0072 62.0038 61.3941 61.7364 61.6974C61.4688 62.0007 61.1032 62.2012 60.7028 62.2642C59.9281 62.4414 59.1376 62.5406 58.343 62.5604C55.7867 62.5966 53.2298 62.5732 50.6734 62.5732L50.6744 62.6277Z" fill="url(#paint4_linear_368_983)"/>
</g>
<defs>
<linearGradient id="paint0_linear_368_983" x1="73.8885" y1="112.29" x2="44.3628" y2="-23.5346" gradientUnits="userSpaceOnUse">
<stop stop-color="#F5F4FF"/>
<stop offset="1" stop-color="#F4F6FF"/>
</linearGradient>
<linearGradient id="paint1_linear_368_983" x1="65.8052" y1="40.291" x2="65.6927" y2="33.6601" gradientUnits="userSpaceOnUse">
<stop stop-color="#F5F4FF"/>
<stop offset="1" stop-color="#F4F6FF"/>
</linearGradient>
<linearGradient id="paint2_linear_368_983" x1="66.2915" y1="28.1855" x2="66.1844" y2="21.8482" gradientUnits="userSpaceOnUse">
<stop stop-color="#F5F4FF"/>
<stop offset="1" stop-color="#F4F6FF"/>
</linearGradient>
<linearGradient id="paint3_linear_368_983" x1="65.7616" y1="49.9727" x2="65.6863" y2="44.6178" gradientUnits="userSpaceOnUse">
<stop stop-color="#F5F4FF"/>
<stop offset="1" stop-color="#F4F6FF"/>
</linearGradient>
<linearGradient id="paint4_linear_368_983" x1="55.9577" y1="62.6406" x2="55.7043" y2="56.5143" gradientUnits="userSpaceOnUse">
<stop stop-color="#F5F4FF"/>
<stop offset="1" stop-color="#F4F6FF"/>
</linearGradient>
<clipPath id="clip0_368_983">
<rect width="101" height="124" fill="white" transform="translate(101 113) rotate(-180)"/>
</clipPath>
</defs>
</svg>
