<svg width="64" height="64" viewBox="0 0 64 64" fill="none" xmlns="http://www.w3.org/2000/svg">
<path d="M34.1561 32.9988L26.5385 26.6505C26.2345 26.3951 26.044 26.0295 26.0089 25.634C25.9737 25.2384 26.0967 24.845 26.351 24.54C26.6052 24.2349 26.97 24.0431 27.3653 24.0064C27.7607 23.9698 28.1545 24.0913 28.4605 24.3444L37.4609 31.8457C37.6297 31.9868 37.7654 32.1631 37.8586 32.3623C37.9517 32.5616 38 32.7788 38 32.9988C38 33.2187 37.9517 33.436 37.8586 33.6352C37.7654 33.8344 37.6297 34.0108 37.4609 34.1518L28.4605 41.6531C28.1547 41.9074 27.7604 42.03 27.3643 41.9938C26.9682 41.9576 26.6027 41.7656 26.348 41.46C26.0933 41.1545 25.9703 40.7603 26.0061 40.3641C26.0418 39.9679 26.2333 39.6021 26.5385 39.347L34.1561 32.9988Z" fill="#3C57FF"/>
</svg>
