<svg width="64" height="64" viewBox="0 0 64 64" fill="none" xmlns="http://www.w3.org/2000/svg">
<path d="M29.8439 32.9988L37.4615 26.6505C37.7655 26.3951 37.956 26.0295 37.9911 25.634C38.0263 25.2384 37.9033 24.845 37.649 24.54C37.3948 24.2349 37.03 24.0431 36.6347 24.0064C36.2393 23.9698 35.8455 24.0913 35.5395 24.3444L26.5391 31.8457C26.3703 31.9868 26.2346 32.1631 26.1414 32.3623C26.0483 32.5616 26 32.7788 26 32.9988C26 33.2187 26.0483 33.436 26.1414 33.6352C26.2346 33.8344 26.3703 34.0108 26.5391 34.1518L35.5395 41.6531C35.8453 41.9074 36.2396 42.03 36.6357 41.9938C37.0318 41.9576 37.3973 41.7656 37.652 41.46C37.9067 41.1545 38.0297 40.7603 37.9939 40.3641C37.9582 39.9679 37.7667 39.6021 37.4615 39.347L29.8439 32.9988Z" fill="#3C57FF"/>
</svg>
