<svg width="80" height="80" viewBox="0 0 80 80" fill="none" xmlns="http://www.w3.org/2000/svg">
<rect width="80" height="80" rx="12" transform="matrix(1 0 0 -1 0 80)" fill="url(#paint0_linear_368_572)"/>
<path d="M59.0401 26.2618L59.0401 26.2617C59.1542 26.0025 59.1694 25.7062 59.0832 25.4357C59.0077 25.1756 58.891 24.9737 58.6697 24.8647C58.4657 24.7642 58.209 24.7635 57.9156 24.7887C57.0361 24.8638 56.1518 24.9026 55.2689 24.9092C53.3648 24.9233 51.4591 24.9323 49.553 24.9413C47.2411 24.9522 44.9287 24.9631 42.6182 24.9832H42.6182C41.6459 24.9917 40.6746 25.0684 39.7133 25.1495L39.7088 25.1499L39.7088 25.1499C39.363 25.1871 39.0246 25.2804 38.705 25.4266C38.4889 25.5022 38.3075 25.6559 38.189 25.8572L59.0401 26.2618ZM59.0401 26.2618C58.9255 26.5218 58.7185 26.7269 58.4597 26.8267C58.1309 26.9555 57.7863 27.0316 57.4367 27.0522M59.0401 26.2618L57.4367 27.0522M50.2986 27.2503C51.877 27.2258 53.3966 27.2023 54.9159 27.1703L50.2986 27.2503ZM50.2986 27.2503C49.6607 27.2602 49.0132 27.2702 48.3522 27.2811M50.2986 27.2503L48.3522 27.2811M48.3522 27.2811C47.7939 27.302 47.2287 27.3233 46.658 27.3449C44.4395 27.4286 42.138 27.5155 39.8366 27.5957C39.5156 27.6081 39.1944 27.5785 38.8801 27.5079C38.6579 27.4642 38.4578 27.3434 38.3088 27.1677L48.3522 27.2811ZM57.4367 27.0522C56.5968 27.1133 55.7566 27.1528 54.9159 27.1703L57.4367 27.0522ZM38.0478 26.5379C38.02 26.3014 38.0692 26.0605 38.1889 25.8572L38.0478 26.5379ZM38.0478 26.5379C38.0692 26.7708 38.1598 26.9921 38.3087 27.1676L38.0478 26.5379Z" fill="url(#paint1_linear_368_572)" stroke="url(#paint2_linear_368_572)" stroke-width="0.4"/>
<path d="M43.3871 46.4232L43.3784 46.4228C43.0254 46.4076 42.6717 46.3934 42.3177 46.3793C41.3786 46.3417 40.4368 46.304 39.4967 46.2463L39.4903 46.2459L39.4903 46.2458C39.1355 46.2127 38.7868 46.1197 38.4509 45.9696C38.2894 45.9012 38.1858 45.7621 38.1246 45.6127C38.0633 45.463 38.0364 45.2856 38.0369 45.103C38.0313 44.9146 38.0653 44.7238 38.137 44.557C38.2077 44.3926 38.3166 44.2485 38.4599 44.1603C38.6092 44.0579 38.7709 43.9873 38.9398 43.9545L38.9423 43.954L38.9424 43.954C39.219 43.904 39.4972 43.8793 39.7751 43.8801L39.7776 43.8801L39.7776 43.8801C40.8281 43.8965 41.8777 43.9156 42.9269 43.9347C44.6779 43.9665 46.4279 43.9984 48.1793 44.0174L48.1793 44.0174C48.6066 44.0221 49.0359 44.0035 49.4701 43.981C49.5472 43.977 49.6245 43.9729 49.702 43.9688C50.0591 43.9498 50.4199 43.9306 50.78 43.9226L50.7862 43.9225L50.7862 43.9226C51.0815 43.9251 51.3755 43.9592 51.6659 44.0247C51.8402 44.0546 51.9733 44.1778 52.0552 44.3266C52.1388 44.4785 52.1752 44.6643 52.1663 44.8468L52.1661 44.8514L52.166 44.8514C52.1435 45.165 52.0422 45.4676 51.8717 45.694L51.8646 45.7034L51.8644 45.7032C51.6852 45.9142 51.4178 45.9712 51.2457 46.0078C51.23 46.0112 51.215 46.0143 51.201 46.0175L43.3871 46.4232ZM43.3871 46.4232L43.3958 46.4228M43.3871 46.4232L43.3958 46.4228M43.3958 46.4228C44.1111 46.3915 44.8302 46.3761 45.5517 46.3607C47.228 46.3249 48.9172 46.2888 50.6006 46.0516M43.3958 46.4228L50.6006 46.0516M50.6006 46.0516C50.6715 46.0416 50.7436 46.0424 50.8337 46.0434C50.8435 46.0435 50.8535 46.0437 50.8638 46.0438C50.9617 46.0447 51.0799 46.0445 51.2009 46.0175L50.6006 46.0516Z" fill="url(#paint3_linear_368_572)" stroke="url(#paint4_linear_368_572)" stroke-width="0.4"/>
<path d="M47.5336 34.4749H47.3429C46.7736 34.4749 46.204 34.4733 45.6341 34.4716C44.1627 34.4674 42.6897 34.4631 41.2178 34.4871L41.2163 34.4871V34.4872C40.5284 34.5034 39.8477 34.5949 39.198 34.7587C38.8729 34.8312 38.5795 34.9786 38.3675 35.1883L38.3674 35.1883C38.1536 35.3997 38.0311 35.6674 38.0408 35.9522L47.5336 34.4749ZM47.5336 34.4749L47.5351 34.5076M47.5336 34.4749L47.5351 34.5076M47.5351 34.5076C48.103 34.5224 48.671 34.5366 49.2392 34.5508C50.9661 34.5939 52.6941 34.6372 54.4205 34.6961C54.8517 34.7108 55.1777 34.7676 55.4154 34.9035C55.6657 35.0466 55.7934 35.2622 55.8622 35.5273C55.9634 35.8134 55.9098 36.114 55.7254 36.3634C55.7253 36.3635 55.7253 36.3635 55.7253 36.3635L55.5645 36.2446M47.5351 34.5076L53.5494 36.8884C54.0008 36.8768 54.4454 36.8068 54.8615 36.6818M55.5645 36.2446C55.4149 36.4472 55.1643 36.603 54.8615 36.6818M55.5645 36.2446C55.7143 36.0421 55.752 35.8073 55.6708 35.5861L55.5645 36.2446ZM54.8615 36.6818L54.9191 36.8733C54.9179 36.8737 54.9167 36.874 54.9156 36.8744M54.8615 36.6818L54.9119 36.8753C54.9131 36.875 54.9143 36.8747 54.9156 36.8744M54.9156 36.8744C54.4828 37.004 54.0217 37.0763 53.5546 37.0883V37.0883L53.5534 37.0884C49.3367 37.1729 45.1192 37.2407 40.901 37.2918L40.901 37.2918L40.8961 37.2918C40.3438 37.285 39.7957 37.2198 39.2696 37.0981C38.9411 37.0366 38.6402 36.9 38.4162 36.6997L38.4162 36.6997C38.1904 36.4976 38.0504 36.2365 38.0408 35.9522L54.9156 36.8744Z" fill="url(#paint5_linear_368_572)" stroke="url(#paint6_linear_368_572)" stroke-width="0.4"/>
<path d="M45.8853 54.6801L45.892 54.88C45.892 54.88 45.8919 54.88 45.8918 54.88C44.6191 54.9227 43.3465 54.952 42.0744 54.968L42.0742 54.968C41.1937 54.9782 40.3092 54.9776 39.4264 54.9442C39.1015 54.9497 38.7859 54.8531 38.5084 54.6668L38.4947 54.6576L38.4828 54.6464C38.248 54.4253 38.0979 54.1075 38.0493 53.7604L38.0484 53.7541L38.0485 53.754C38.0247 53.5323 38.0684 53.303 38.1737 53.1105C38.2773 52.9214 38.4388 52.7721 38.6368 52.7088C38.9297 52.5893 39.2352 52.5264 39.5423 52.5237L39.5439 52.5237C40.4966 52.5228 41.4494 52.5377 42.4003 52.5525C42.7455 52.5579 43.0905 52.5633 43.4351 52.5679L43.64 52.5706L43.6376 52.6348L46.7438 52.8068C46.9285 52.867 47.0796 53.0001 47.1814 53.1718L47.1814 53.1718C47.2829 53.3434 47.3329 53.5489 47.3292 53.7563V53.7564C47.3255 53.9639 47.2683 54.1694 47.1629 54.3419C47.0574 54.5143 46.9055 54.6501 46.7232 54.7167M45.8853 54.6801C46.1445 54.6721 46.4031 54.6213 46.6545 54.5289M45.8853 54.6801C44.6139 54.7227 43.3427 54.752 42.0719 54.768L45.8853 54.6801ZM46.6545 54.5289L46.7232 54.7167M46.6545 54.5289C46.7878 54.4801 46.9065 54.3778 46.9922 54.2375C47.078 54.0973 47.1261 53.927 47.1292 53.7528L46.7232 54.7167M46.6545 54.5289L46.7234 54.7166C46.7234 54.7167 46.7233 54.7167 46.7232 54.7167" fill="url(#paint7_linear_368_572)" stroke="url(#paint8_linear_368_572)" stroke-width="0.4"/>
<path d="M25.5009 41.2361C25.5307 37.4169 25.5556 33.5976 25.5756 29.7782C25.5777 29.3736 25.5501 28.9693 25.522 28.5568C25.5172 28.4857 25.5123 28.4143 25.5076 28.3426C25.5048 28.3423 25.5017 28.342 25.4985 28.3417C25.4877 28.3409 25.4771 28.3409 25.4678 28.3415C25.0493 28.8353 24.6375 29.3286 24.2252 29.8225C23.8564 30.2643 23.4871 30.7066 23.1122 31.1503C21.8919 32.603 20.6627 34.0479 19.4246 35.4851C19.0981 35.8641 18.7149 36.245 18.1804 36.4377C18.1804 36.4377 18.1804 36.4377 18.1804 36.4377L25.5009 41.2361ZM25.5009 41.2361L25.4622 41.2352L25.4638 41.4415C25.4718 42.428 25.4793 43.4146 25.4868 44.4012C25.5076 47.1363 25.5285 49.8718 25.5582 52.607L25.5582 52.6071C25.5667 53.3573 25.625 54.1067 25.6973 54.8476L25.6975 54.8496C25.715 55.0116 25.7806 55.1646 25.8859 55.2887C25.8859 55.2887 25.886 55.2887 25.886 55.2887L26.0384 55.1593M25.5009 41.2361L26.2847 55.5439M26.0384 55.1593C26.1178 55.2528 26.2233 55.32 26.3412 55.352M26.0384 55.1593C25.959 55.0658 25.9095 54.9504 25.8964 54.8282L26.0384 55.1593ZM26.3412 55.352L26.2801 55.5425C26.2816 55.543 26.2832 55.5434 26.2847 55.5439M26.3412 55.352L26.2887 55.545C26.2874 55.5447 26.2861 55.5443 26.2847 55.5439M26.3412 55.352C26.5299 55.4126 26.7976 55.2017 26.837 54.9498M26.2847 55.5439C26.4676 55.6003 26.6493 55.5212 26.7703 55.424C26.8977 55.3217 27.0059 55.164 27.0346 54.9807L26.837 54.9498M26.837 54.9498C26.8492 54.8718 26.8635 54.7939 26.8779 54.716C26.9084 54.55 26.939 54.3839 26.949 54.2167M26.837 54.9498L27.0346 54.9807L26.949 54.2167M26.949 54.2167L27.1486 54.2287C27.1379 54.4083 27.1035 54.5956 27.0719 54.7676L26.949 54.2167ZM26.949 54.2167C26.9746 53.7914 27.003 53.3662 27.0315 52.941C27.108 51.7981 27.1846 50.655 27.2051 49.5109C27.2627 46.2864 27.2771 43.0605 27.2807 39.8352C27.2827 38.0793 27.2711 36.3234 27.2595 34.5675C27.2509 33.2632 27.2422 31.959 27.2392 30.6547M26.949 54.2167L27.1486 54.2286C27.174 53.8064 27.2024 53.383 27.2308 52.9588C27.3074 51.8143 27.3844 50.6639 27.4051 49.5145L27.4051 49.5145C27.4627 46.2883 27.4771 43.0611 27.4807 39.8355C27.4827 38.0795 27.4711 36.3216 27.4595 34.5645C27.4509 33.2602 27.4422 31.9563 27.4392 30.6542M27.2392 30.6547L27.4392 30.6543C27.4392 30.6542 27.4392 30.6542 27.4392 30.6542M27.2392 30.6547L27.4392 30.6542M27.2392 30.6547C27.2384 30.2719 27.2754 29.8889 27.3124 29.5063C27.3229 29.3979 27.3334 29.2895 27.343 29.1812M27.4392 30.6542C27.4384 30.2823 27.4742 29.9123 27.511 29.5315C27.5203 29.4352 27.5296 29.3382 27.5385 29.2403M27.5385 29.2403C27.5329 29.2395 27.5271 29.2388 27.5212 29.2384C27.508 29.2375 27.4989 29.2379 27.495 29.2384L27.4926 29.218L27.343 29.1812M27.5385 29.2403C27.5389 29.2356 27.5393 29.2309 27.5398 29.2262M27.5385 29.2403C27.5418 29.2408 27.5451 29.2413 27.5483 29.2419M27.343 29.1812L27.4898 29.1942L27.4887 29.1842L27.4717 29.0397M27.343 29.1812C27.351 29.1487 27.367 29.1186 27.3895 29.0939C27.4119 29.0692 27.4402 29.0506 27.4717 29.0397M27.5398 29.2262L16.9484 35.1808C17.1364 34.8053 17.3531 34.4449 17.5966 34.1031L17.6002 34.0981L17.6003 34.0981C19.447 31.6679 21.3052 29.2463 23.1747 26.8335C23.5842 26.3046 24.0428 25.8141 24.4951 25.3362C25.2821 24.5043 25.9248 24.1661 26.5049 24.33C26.7886 24.4101 27.0232 24.6033 27.2268 24.85C27.4305 25.0969 27.6155 25.4124 27.7961 25.7619M27.5398 29.2262C27.5426 29.2315 27.5454 29.2367 27.5483 29.2419M27.5398 29.2262L27.4717 29.0397M27.5483 29.2419C27.6651 29.458 27.7829 29.6727 27.9003 29.8868C28.289 30.5958 28.6744 31.2986 29.0147 32.0253L29.0147 32.0253C30.0741 34.2867 31.3725 36.4063 32.6684 38.5137L32.6684 38.5137C32.676 38.526 32.6836 38.5384 32.6912 38.5509C32.8921 38.8784 33.1432 39.2878 33.6285 39.4482L33.6286 39.4483C33.6679 39.4613 33.7301 39.4809 33.789 39.4926C33.8174 39.4982 33.8553 39.5041 33.8941 39.5031C33.9136 39.5026 33.9413 39.5003 33.9715 39.4908C33.9996 39.4819 34.0405 39.4634 34.075 39.4243M27.5483 29.2419C27.5514 29.2425 27.5545 29.2432 27.5573 29.2439C27.5665 29.2461 27.5706 29.2479 27.5706 29.2479C27.5706 29.2479 27.5703 29.2477 27.5698 29.2474C27.5682 29.2466 27.5624 29.2434 27.5548 29.2367C27.5509 29.2333 27.5457 29.2283 27.5402 29.2216C27.5409 29.214 27.5415 29.2064 27.5422 29.1989L27.5271 29.1975L27.5261 29.1974L27.5261 29.1973L27.4717 29.0397M34.075 39.4243C34.2033 39.285 34.2954 39.1161 34.3434 38.9326L34.347 38.9191L34.3486 38.9053C34.3719 38.7061 34.34 38.5044 34.2563 38.3223M34.075 39.4243C34.0742 39.4252 34.0733 39.4261 34.0725 39.427L33.9258 39.2911M34.075 39.4243C34.0774 39.4216 34.0798 39.4187 34.0822 39.4158L33.9258 39.2911M34.2563 38.3223C34.0184 37.7934 33.7695 37.2672 33.5016 36.7504L33.5016 36.7504C32.7279 35.2582 31.9525 33.7674 31.1772 32.2767C30.0482 30.1061 28.9194 27.9358 27.7961 25.7619M34.2563 38.3223C34.2565 38.3226 34.2566 38.3228 34.2567 38.3231L34.0743 38.4052M34.2563 38.3223C34.2562 38.322 34.2561 38.3218 34.256 38.3215L34.0743 38.4052M27.7961 25.7619L27.6184 25.8537L27.7961 25.7619ZM34.0743 38.4052C34.1429 38.554 34.169 38.719 34.1499 38.882M34.0743 38.4052C33.8372 37.8783 33.5899 37.3552 33.3241 36.8425L34.1499 38.882M34.1499 38.882C34.1099 39.0349 34.0329 39.1754 33.9258 39.2911M34.1499 38.882L33.9258 39.2911" fill="url(#paint9_linear_368_572)" stroke="url(#paint10_linear_368_572)" stroke-width="0.4"/>
<defs>
<linearGradient id="paint0_linear_368_572" x1="-22.9258" y1="-46.5333" x2="53.6215" y2="87.4528" gradientUnits="userSpaceOnUse">
<stop stop-color="#9368FE"/>
<stop offset="1" stop-color="#3C57FF"/>
</linearGradient>
<linearGradient id="paint1_linear_368_572" x1="43.6088" y1="27.3984" x2="43.6708" y2="24.5818" gradientUnits="userSpaceOnUse">
<stop stop-color="#F5F4FF"/>
<stop offset="1" stop-color="#F4F6FF"/>
</linearGradient>
<linearGradient id="paint2_linear_368_572" x1="43.6088" y1="27.3984" x2="43.6708" y2="24.5818" gradientUnits="userSpaceOnUse">
<stop stop-color="#F5F4FF"/>
<stop offset="1" stop-color="#F4F6FF"/>
</linearGradient>
<linearGradient id="paint3_linear_368_572" x1="41.7979" y1="44.0801" x2="41.8709" y2="46.5697" gradientUnits="userSpaceOnUse">
<stop stop-color="#F5F4FF"/>
<stop offset="1" stop-color="#F4F6FF"/>
</linearGradient>
<linearGradient id="paint4_linear_368_572" x1="41.7979" y1="44.0801" x2="41.8709" y2="46.5697" gradientUnits="userSpaceOnUse">
<stop stop-color="#F5F4FF"/>
<stop offset="1" stop-color="#F4F6FF"/>
</linearGradient>
<linearGradient id="paint5_linear_368_572" x1="42.7721" y1="37.0918" x2="42.8455" y2="34.2757" gradientUnits="userSpaceOnUse">
<stop stop-color="#F5F4FF"/>
<stop offset="1" stop-color="#F4F6FF"/>
</linearGradient>
<linearGradient id="paint6_linear_368_572" x1="42.7721" y1="37.0918" x2="42.8455" y2="34.2757" gradientUnits="userSpaceOnUse">
<stop stop-color="#F5F4FF"/>
<stop offset="1" stop-color="#F4F6FF"/>
</linearGradient>
<linearGradient id="paint7_linear_368_572" x1="40.5473" y1="52.7236" x2="40.6504" y2="55.1031" gradientUnits="userSpaceOnUse">
<stop stop-color="#F5F4FF"/>
<stop offset="1" stop-color="#F4F6FF"/>
</linearGradient>
<linearGradient id="paint8_linear_368_572" x1="40.5473" y1="52.7236" x2="40.6504" y2="55.1031" gradientUnits="userSpaceOnUse">
<stop stop-color="#F5F4FF"/>
<stop offset="1" stop-color="#F4F6FF"/>
</linearGradient>
<linearGradient id="paint9_linear_368_572" x1="21.4947" y1="24.4902" x2="32.4172" y2="56.6827" gradientUnits="userSpaceOnUse">
<stop stop-color="#F5F4FF"/>
<stop offset="1" stop-color="#F4F6FF"/>
</linearGradient>
<linearGradient id="paint10_linear_368_572" x1="21.4947" y1="24.4902" x2="32.4172" y2="56.6827" gradientUnits="userSpaceOnUse">
<stop stop-color="#F5F4FF"/>
<stop offset="1" stop-color="#F4F6FF"/>
</linearGradient>
</defs>
</svg>
