<svg width="80" height="80" viewBox="0 0 80 80" fill="none" xmlns="http://www.w3.org/2000/svg">
<rect width="80" height="80" rx="12" transform="matrix(1 0 0 -1 0 80)" fill="url(#paint0_linear_368_586)"/>
<path d="M54.33 31.3613H54.3102C54.0592 31.3633 53.8079 31.3676 53.557 31.3722H53.5249C53.2121 31.3775 52.8996 31.383 52.586 31.383H52.4954C49.396 31.3972 46.3007 31.6099 43.2286 32.0199C42.9808 32.0516 42.2272 32.1476 42.1936 32.9634C42.1701 33.5426 42.5697 33.9514 43.2367 34.0306C43.5677 34.0645 43.9009 34.0717 44.2331 34.0522C45.5022 33.998 46.7709 33.9419 48.0397 33.8839L48.3782 33.8688C49.2526 33.8294 50.1268 33.7906 51.0012 33.7525C51.0623 33.7497 51.1244 33.7481 51.188 33.7474L40.8849 41.6893L38.9544 39.9201C37.5716 38.6513 36.1419 37.3393 34.7266 36.0582C33.8749 35.2876 33.1388 35.2592 32.3395 35.9668L31.8563 36.3943C30.0185 38.0211 28.1182 39.7033 26.2668 41.3766C24.2278 43.2184 22.2147 45.0838 20.6886 46.503C20.3471 46.8254 20.0448 47.187 19.7878 47.5802C19.6551 47.7763 19.5986 48.0138 19.6292 48.2486C19.6598 48.4837 19.7752 48.699 19.9538 48.8547C20.1375 49.0427 20.3882 49.1507 20.6512 49.1545C20.8202 49.1527 20.9861 49.1099 21.1346 49.0295L21.2564 48.9665C21.4718 48.8658 21.6751 48.7416 21.8627 48.5956L22.3112 48.222C23.3287 47.373 24.3807 46.4946 25.3906 45.6003C27.3347 43.8787 29.3072 42.1136 31.2139 40.4065L31.2474 40.3764C31.9843 39.7164 32.7228 39.0557 33.4632 38.394L33.5541 38.4615C33.6691 38.5432 33.7799 38.6308 33.8858 38.7239L35.0773 39.8273C36.6036 41.24 38.1819 42.701 39.7202 44.1507C40.5606 44.9433 41.2006 44.9968 42.0798 44.3517C42.2209 44.2481 42.3567 44.1375 42.4959 44.0241L42.5266 43.9992C42.608 43.933 42.6892 43.8669 42.7722 43.8023C45.8566 41.4099 48.9423 39.0185 52.0288 36.6281C52.1929 36.5012 52.3647 36.3802 52.5455 36.2542C52.3314 37.0861 52.1161 37.9178 51.9002 38.7495L51.8291 39.0235C51.5967 39.9186 51.3655 40.8135 51.1352 41.7084L51.1088 41.8104C51.0267 42.0757 50.9808 42.351 50.9727 42.6287C50.9793 42.9304 51.0821 43.2223 51.266 43.4617C51.4498 43.7012 51.7053 43.8756 51.9952 43.96C52.2849 44.0442 52.5941 44.034 52.8778 43.9305C53.1614 43.827 53.4046 43.6358 53.5719 43.3845C53.7462 43.1135 53.8709 42.8135 53.9402 42.4988C54.5267 39.7859 55.2194 36.5639 55.9109 33.2374C56.0255 32.6891 55.9406 32.2222 55.6656 31.8872C55.3829 31.5432 54.9211 31.3613 54.33 31.3613Z" fill="url(#paint1_linear_368_586)"/>
<path d="M62.809 44.5436C62.6372 40.4274 62.463 36.8323 62.2759 33.5542C62.1475 31.3058 61.9646 28.3472 61.6854 25.4001C61.2794 21.0997 57.8204 17.9875 53.2735 17.8312C49.9081 17.7153 46.4836 17.6669 43.1703 17.62C42.2256 17.6068 41.2665 17.6149 40.3385 17.6228C38.8161 17.6358 37.2418 17.6494 35.7015 17.5675C32.2025 17.3835 28.4927 17.5376 23.676 18.0698C20.5427 18.4162 18.1849 19.3373 16.2547 20.9688C14.6639 22.3135 13.8884 23.873 13.8845 25.7369C13.8831 26.337 13.8711 26.9451 13.8484 27.5446C13.8288 28.0725 13.7924 28.612 13.7577 29.1335C13.6588 30.2501 13.6322 31.3718 13.678 32.4918C13.7077 32.9586 13.7379 33.4256 13.7687 33.8926C14.0077 37.5503 14.2549 41.3321 14.0039 45.0647C13.9004 46.6042 13.9287 48.1743 13.9559 49.6917L13.9618 50.0275C14.0078 52.6322 14.3887 54.9214 15.1265 57.0259C15.9225 59.2968 17.4677 60.6777 19.7195 61.1299C21.1126 61.4199 22.5266 61.5989 23.948 61.6655C26.5936 61.7734 29.2845 61.8334 31.887 61.8916C32.945 61.9152 34.003 61.9401 35.0611 61.9656H35.0648C35.1003 61.9653 35.1347 61.9536 35.1632 61.9326H36.0013C36.7 61.9326 37.3994 61.9326 38.0995 61.9326L39.2096 61.9344C43.5919 61.9434 48.1224 61.9524 52.546 61.2588C54.0886 61.0171 55.8905 60.6795 57.5604 60.0084C60.9106 58.662 62.7185 56.179 62.9335 52.6292C63.0714 50.3472 62.9677 48.0505 62.8663 45.8296C62.8468 45.4011 62.8276 44.9724 62.809 44.5436ZM16.8513 42.0552C16.7961 39.6728 16.6761 37.1102 16.473 33.9914C16.3128 31.5284 16.2152 28.2813 16.8924 24.9902C16.9081 24.9452 16.9148 24.8976 16.912 24.85C16.7546 23.0014 18.0754 22.2773 19.4724 21.5109L19.5211 21.4843C20.8763 20.7403 22.3772 20.4817 23.7985 20.2804C27.0333 19.8549 30.2942 19.6576 33.5568 19.6899C34.9162 19.6899 36.2569 19.7123 37.5719 19.7401C39.9628 19.7903 42.3939 19.823 44.7443 19.8547C46.796 19.882 48.917 19.9108 51.0032 19.9507C51.97 19.9625 52.9347 20.0451 53.8894 20.1977C57.3211 20.7695 59.2193 23.0008 59.3785 26.6505C59.509 29.6464 59.6289 32.6928 59.745 35.6397C59.8323 37.852 59.921 40.0644 60.0116 42.2767C60.0446 43.0743 60.0904 43.8846 60.1345 44.6678C60.2038 45.8978 60.2752 47.1697 60.3006 48.4199C60.3303 49.9001 60.2485 51.4132 60.1627 52.8361C60.0368 54.9109 58.8298 56.3845 56.5754 57.216C55.1948 57.7012 53.7677 58.0418 52.3172 58.2328C47.4309 58.9612 42.4159 58.9285 37.5667 58.898L36.9259 58.8938C36.6746 58.8923 36.4233 58.8929 36.1717 58.8938H35.8137C35.782 58.8938 35.7509 58.9013 35.7226 58.9153C35.6945 58.9297 35.6698 58.9501 35.6511 58.9756C34.5884 58.9486 33.5255 58.9222 32.4627 58.8971C29.3597 58.8206 26.1514 58.7417 22.997 58.638C22.1844 58.5891 21.3768 58.4772 20.5815 58.3036L20.4361 58.2757C19.1028 58.0199 18.2107 57.1968 17.7848 55.8273C17.1378 53.6865 16.8142 51.4609 16.8247 49.2245C16.8176 48.201 16.8322 47.1612 16.8461 46.1541C16.8633 44.8106 16.8827 43.4219 16.8513 42.0552Z" fill="url(#paint2_linear_368_586)"/>
<defs>
<linearGradient id="paint0_linear_368_586" x1="-22.9258" y1="-46.5333" x2="53.6215" y2="87.4528" gradientUnits="userSpaceOnUse">
<stop stop-color="#9368FE"/>
<stop offset="1" stop-color="#3C57FF"/>
</linearGradient>
<linearGradient id="paint1_linear_368_586" x1="29.0466" y1="31.3613" x2="30.934" y2="51.8777" gradientUnits="userSpaceOnUse">
<stop stop-color="#F5F4FF"/>
<stop offset="1" stop-color="#F4F6FF"/>
</linearGradient>
<linearGradient id="paint2_linear_368_586" x1="26.4548" y1="17.4932" x2="34.9673" y2="67.7643" gradientUnits="userSpaceOnUse">
<stop stop-color="#F5F4FF"/>
<stop offset="1" stop-color="#F4F6FF"/>
</linearGradient>
</defs>
</svg>
