<svg width="80" height="80" viewBox="0 0 80 80" fill="none" xmlns="http://www.w3.org/2000/svg">
<rect width="80" height="80" rx="12" transform="matrix(1 0 0 -1 0 80)" fill="url(#paint0_linear_368_581)"/>
<path d="M58.1357 26.7043C57.5096 26.2562 56.6253 26.2305 55.7095 26.6343C55.0515 26.937 54.4309 27.3149 53.86 27.7605C52.356 28.8975 51.0797 30.4221 49.8426 32.5585C49.734 32.7461 49.6215 32.9313 49.5088 33.1164L49.5053 33.1225C49.4641 32.5132 49.4577 31.902 49.4861 31.2919C49.492 31.0959 49.4978 30.9011 49.501 30.706L49.5161 29.8247C49.5428 28.3183 49.5704 26.7594 49.5294 25.2277C49.4922 23.8492 49.2319 22.7215 48.7326 21.7799C48.3322 21.0252 47.7601 20.5405 47.0778 20.3801C46.3956 20.2197 45.6685 20.3965 44.974 20.8925C44.7302 21.0762 44.4998 21.2773 44.2849 21.4943C44.2155 21.561 44.1444 21.6293 44.0704 21.6987C44.0595 21.6243 44.0496 21.5522 44.0397 21.4818C44.0101 21.2307 43.9657 20.9816 43.9062 20.7359C43.8704 20.6007 43.8366 20.4642 43.8025 20.3273C43.6957 19.8234 43.5371 19.332 43.3292 18.8607C42.9231 18.0229 42.3033 17.4869 41.5842 17.3517C40.845 17.2121 40.0439 17.5002 39.3294 18.1624C38.3106 19.1067 37.8825 20.366 37.6236 21.3577C36.8648 24.263 36.6276 27.2043 36.4158 30.4724C36.3424 31.606 36.313 32.7297 36.2823 33.9198C36.2693 34.4131 36.2562 34.9144 36.2396 35.4262L36.0697 35.3335C35.9025 35.2422 35.7739 35.1718 35.6426 35.1072C34.4432 34.5151 32.9978 33.9211 31.3831 34.0108L31.1865 34.0212C30.4319 34.0413 29.6803 34.1227 28.9389 34.2645C26.0363 34.9058 23.999 36.6422 22.8837 39.4254C22.5428 40.2763 22.5532 41.0731 22.9142 41.73C23.2828 42.4007 24.0034 42.8669 24.9431 43.0425C25.8415 43.2178 26.7728 43.0479 27.5517 42.5671C27.7423 42.4527 27.9317 42.3349 28.1209 42.2174C28.347 42.0767 28.573 41.9362 28.8022 41.801C29.9789 41.1073 31.2461 41.0222 32.5684 41.5483C33.0227 41.7323 33.4323 42.0117 33.7698 42.3671C34.1072 42.7227 34.3647 43.1462 34.5249 43.6096C34.6872 44.056 34.752 44.5321 34.7151 45.0056C34.6781 45.4792 34.5403 45.9396 34.3108 46.3555C34.0097 46.8834 33.6321 47.3637 33.1902 47.7809C32.6201 48.3442 31.8663 48.6838 31.0666 48.737C30.2669 48.7901 29.4747 48.5539 28.8349 48.0714C28.2992 47.6452 27.7982 47.1771 27.3367 46.6713C27.1203 46.4465 26.8963 46.2138 26.6694 45.9928C26.4827 45.8114 26.2983 45.6177 26.1198 45.4302C25.7272 44.9903 25.293 44.5897 24.8231 44.2337C23.8674 43.5585 22.7382 43.4178 21.8025 43.8575C20.8668 44.2972 20.258 45.2495 20.1687 46.409C20.1179 47.1644 20.1627 47.9229 20.3022 48.667C20.5945 50.309 21.3363 51.8 22.1356 53.3099C23.8409 56.5307 26.1627 58.8084 29.0365 60.0806C31.7864 61.2976 34.5335 61.9071 37.2517 61.9071C39.1145 61.9048 40.9661 61.6204 42.7434 61.0626C46.0333 60.0391 48.3537 57.8711 49.6398 54.6184C50.5277 52.3732 51.089 49.8785 51.356 46.9909C51.5428 44.9716 51.7348 43.16 51.9428 41.4528C51.9794 40.9827 52.1233 40.5274 52.3624 40.1214C53.0965 39.0189 53.8626 37.9095 54.6038 36.8384C55.2842 35.8541 55.9878 34.8362 56.6654 33.8256C57.3214 32.8496 57.9216 31.8374 58.4634 30.7937C58.7505 30.2316 58.928 29.6198 58.9858 28.9912C59.0744 27.9859 58.7641 27.1539 58.1357 26.7043ZM36.2489 47.628C37.1699 46.2231 37.2717 44.4644 36.5283 42.8028C35.6984 40.9486 33.9939 39.5751 32.1856 39.3034C30.4314 39.0401 28.9059 39.3329 27.5234 40.1996C27.417 40.2663 27.3125 40.3376 27.2078 40.4093C26.9736 40.5829 26.7204 40.7291 26.4531 40.8455C26.0828 41.0001 25.6826 41.0697 25.2819 41.0495C24.9577 41.0154 24.736 40.9137 24.6254 40.7472C24.5064 40.5682 24.5013 40.2948 24.61 39.9347C25.0729 38.403 26.1087 37.2715 27.6889 36.572C29.779 35.6466 31.7314 35.6376 33.656 36.5425L33.757 36.59C34.7322 37.0476 35.6534 37.4799 36.2159 38.4529C36.506 38.9548 36.9817 39.1627 37.4893 39.0086C38.1186 38.8179 38.1489 38.2378 38.1708 37.8149C38.2185 36.895 38.2606 35.9746 38.303 35.0542C38.3993 32.95 38.4992 30.7743 38.6652 28.6405C38.8317 26.514 39.1023 24.0069 39.8475 21.5343C40.0336 20.9548 40.2893 20.4 40.6091 19.882C40.7363 19.7025 40.8957 19.5481 41.0791 19.4269C41.1445 19.3769 41.2096 19.3273 41.271 19.2762C41.7584 19.6219 41.8319 20.0809 41.8712 20.5992C41.8949 20.9098 41.9206 21.2206 41.9464 21.5316C42.0808 22.8379 42.1369 24.151 42.1143 25.4639C42.0141 28.1072 41.8403 30.7926 41.6723 33.3897C41.6096 34.3596 41.548 35.3296 41.4876 36.2995C41.4779 36.4599 41.4521 36.6237 41.4271 36.7833C41.4071 36.9116 41.3871 37.0398 41.3741 37.1687C41.2904 38.0068 41.577 38.5857 42.1403 38.7174C42.2549 38.7434 42.3737 38.7449 42.4889 38.722C42.604 38.6989 42.7131 38.6518 42.8088 38.5839C42.9831 38.4489 43.1282 38.28 43.2358 38.0876C43.3431 37.895 43.4106 37.6828 43.4341 37.4637C43.5708 36.6069 43.6682 35.6815 43.7315 34.6345C43.8469 32.7242 43.9489 30.7811 44.0477 28.9021C44.0891 28.1111 44.1308 27.32 44.1734 26.5289C44.2428 25.2395 44.7603 24.05 45.756 22.891C46.0567 22.5409 46.3281 22.3817 46.5447 22.4313C46.751 22.4786 46.9186 22.7234 47.029 23.1395C47.2706 23.9755 47.4024 24.8393 47.4211 25.7093C47.4247 27.7254 47.3448 29.7764 47.2672 31.7599L47.2518 32.1584C47.21 33.2368 47.1478 34.3323 47.088 35.393C47.0514 36.04 47.0147 36.687 46.9823 37.3344C46.9694 37.6006 46.9794 37.8675 47.0122 38.132C47.0212 38.3341 47.0977 38.5277 47.2294 38.6812C47.3612 38.8349 47.5406 38.94 47.7391 38.9796C48.1867 39.0727 48.5343 38.8944 48.8016 38.435C49.7218 36.8539 50.6878 35.2101 51.6729 33.5495C52.7845 31.6758 53.9248 30.3517 55.2612 29.3825C55.5834 29.1581 55.9175 28.9516 56.2624 28.7637C56.4024 28.684 56.5427 28.6043 56.6819 28.5221L56.8452 28.6337C56.8031 28.7612 56.7647 28.8909 56.7267 29.0205C56.6441 29.348 56.5239 29.6648 56.3684 29.9644C55.7447 31.0458 55.0657 32.0738 54.5436 32.8487L54.3867 33.0812C53.3995 34.547 52.3786 36.0627 51.3234 37.5154C49.9365 39.4247 49.4548 41.5578 49.1558 44.1721C48.8424 46.9238 48.4872 50.0423 47.4724 52.9604C46.3664 56.1384 44.1501 58.0626 40.8833 58.6791C37.5482 59.329 34.098 59.0367 30.9197 57.8351C28.1738 56.8023 26.0056 54.8627 24.4767 52.0699C23.6567 50.5719 22.8988 49.0868 22.6391 47.3965C22.579 47.0205 22.573 46.6379 22.6213 46.2605C22.624 46.1931 22.6432 46.1275 22.6773 46.0694C22.7115 46.0111 22.7594 45.9622 22.8169 45.927C22.8557 45.9087 22.8981 45.8993 22.9409 45.8999C23.0308 45.9035 23.1181 45.9308 23.1941 45.9788C23.49 46.1615 23.7595 46.3834 23.995 46.6391L24.1212 46.7704C24.6361 47.3044 25.1675 47.8561 25.6385 48.4386C26.5235 49.5339 27.7227 50.3265 29.305 50.8628C31.0528 51.4537 32.772 51.1341 34.2774 49.936C35.1391 49.2486 35.8153 48.2896 36.2489 47.628Z" fill="url(#paint1_linear_368_581)"/>
<defs>
<linearGradient id="paint0_linear_368_581" x1="-22.9258" y1="-46.5333" x2="53.6215" y2="87.4528" gradientUnits="userSpaceOnUse">
<stop stop-color="#9368FE"/>
<stop offset="1" stop-color="#3C57FF"/>
</linearGradient>
<linearGradient id="paint1_linear_368_581" x1="30.2257" y1="17.3173" x2="40.909" y2="66.8628" gradientUnits="userSpaceOnUse">
<stop stop-color="#F5F4FF"/>
<stop offset="1" stop-color="#F4F6FF"/>
</linearGradient>
</defs>
</svg>
