<svg width="80" height="80" viewBox="0 0 80 80" fill="none" xmlns="http://www.w3.org/2000/svg">
<rect width="80" height="80" rx="12" transform="matrix(1 0 0 -1 0 80)" fill="url(#paint0_linear_368_592)"/>
<path d="M59.3452 20.6368L59.5409 20.599C59.7649 20.5556 59.9765 20.5146 60.1829 20.4663C60.4071 20.4209 60.6095 20.3014 60.7576 20.1272C60.9058 19.9529 60.9911 19.7339 60.9998 19.5053C61.0085 19.2767 60.9405 19.0518 60.8064 18.8666C60.672 18.6815 60.4794 18.5468 60.2593 18.4842C59.8273 18.3555 59.3791 18.2911 58.9283 18.293C57.7967 18.3204 56.6468 18.3605 55.5342 18.3991C54.0232 18.4514 52.461 18.5057 50.925 18.5291C43.9773 18.6355 36.3879 18.7329 27.7227 18.8266C25.8053 18.8474 23.8575 18.7993 22.139 18.7571C21.5916 18.7437 21.0331 18.699 20.4933 18.656C20.1468 18.6284 19.8003 18.6016 19.4536 18.5807C18.7132 18.5389 18.4266 18.9438 18.3183 19.2925C18.1564 19.8136 18.3887 20.3101 18.9243 20.5886C19.0825 20.6674 19.2451 20.7369 19.4113 20.7969L19.5129 20.8362C19.5129 21.1862 19.5137 21.5344 19.5151 21.8806C19.5171 22.6951 19.5195 23.5372 19.5113 24.3607C19.4892 26.6342 19.4387 28.9461 19.3892 31.1818C19.2503 37.4982 19.1069 44.0297 19.5888 50.4566C19.6696 51.5337 20.017 51.9127 21.0182 52.0172C21.8589 52.1132 22.7048 52.1574 23.5509 52.1496C25.9875 52.0967 28.4642 52.025 30.8593 51.9556C31.8385 51.9267 32.8178 51.8987 33.7974 51.8713C33.9361 51.8674 34.0751 51.8679 34.2539 51.8691C34.1947 51.9416 34.1372 52.0124 34.0816 52.0804C33.8255 52.394 33.6043 52.6645 33.3988 52.9492C32.1266 54.7105 30.6845 56.7078 29.2824 58.7043C29.0353 59.0825 28.8456 59.4955 28.7197 59.9295C28.6364 60.175 28.6365 60.4415 28.72 60.6871C28.8034 60.9329 28.9656 61.144 29.1813 61.2879C29.3788 61.434 29.6183 61.5119 29.8639 61.5102C30.1706 61.506 30.4671 61.3996 30.7067 61.2081C30.9363 61.023 31.142 60.81 31.3191 60.5742C33.1485 58.2191 34.9741 55.8609 36.8259 53.4694L38.1529 51.7551L43.1864 51.5905L44.1847 53.1849C45.0068 54.4994 45.815 55.792 46.6263 57.083C46.7674 57.3072 46.9077 57.5321 47.0474 57.7569C47.5405 58.5484 48.0503 59.3664 48.5929 60.1453C48.895 60.5684 49.2802 60.9256 49.7248 61.1946C49.9692 61.3576 50.2604 61.4343 50.5532 61.4127C50.8461 61.3918 51.1233 61.2733 51.3416 61.0771C51.5788 60.8833 51.7465 60.6176 51.8195 60.3197C51.8923 60.0221 51.8666 59.7091 51.7456 59.4275C51.5774 59.0151 51.3674 58.6209 51.1188 58.2513C50.1347 56.7814 49.1464 55.3141 48.1533 53.8501C47.6662 53.1298 47.1793 52.4091 46.693 51.6882C46.672 51.656 46.6529 51.6224 46.6364 51.5877C46.719 51.5785 46.7938 51.5712 46.866 51.5695C47.7664 51.5521 48.6668 51.5362 49.5672 51.5213C51.6446 51.4849 53.7931 51.4488 55.9057 51.3895C56.4349 51.3637 56.9623 51.3063 57.4848 51.2176C57.7572 51.1767 58.0394 51.1344 58.3155 51.1028C59.0291 51.0213 59.467 50.5773 59.617 49.783C59.6694 49.4479 59.6901 49.1088 59.6789 48.7698V48.7283C59.6764 47.441 59.6756 46.1539 59.6761 44.8664C59.6761 41.5487 59.675 38.1183 59.6344 34.744C59.598 31.7239 59.5207 28.6541 59.4465 25.6856C59.4118 24.2941 59.3782 22.9027 59.3457 21.5112C59.341 21.287 59.3421 21.0624 59.3438 20.8285C59.3443 20.7657 59.3449 20.7018 59.3452 20.6368ZM22.5804 49.3468L22.5668 49.3429L22.5554 49.2729C22.5311 49.1407 22.5148 49.0072 22.5066 48.8734C22.4717 47.9836 22.434 47.0939 22.3935 46.2042C22.3006 44.0909 22.2043 41.9057 22.1711 39.7568C22.1218 36.5847 22.1034 33.3584 22.086 30.2385C22.0746 28.2283 22.0628 26.1495 22.0428 24.105C22.0361 23.4103 21.9895 22.7172 21.9403 21.9833C21.921 21.6953 21.9012 21.4007 21.8833 21.0966C31.1826 21.4043 40.6107 21.2054 49.7304 21.0115C52.0354 20.9629 54.4163 20.9126 56.7669 20.8708V48.4708C45.1961 48.3053 33.7368 48.6077 22.7069 49.3709C22.664 49.367 22.6217 49.3591 22.5804 49.3468Z" fill="url(#paint1_linear_368_592)"/>
<path d="M54.3089 26.6349C54.6009 26.3143 54.8073 25.9247 54.9078 25.5026C54.9587 25.3157 54.9635 25.1192 54.9212 24.9301C54.8792 24.7409 54.7913 24.565 54.6656 24.4176C54.5399 24.2702 54.38 24.1557 54.2 24.0841C54.0203 24.0125 53.8254 23.986 53.6328 24.0069C53.2646 24.049 52.913 24.1831 52.6098 24.397C52.2097 24.6862 51.8298 25.0026 51.4728 25.3437L51.379 25.4294C48.6459 27.9204 45.9085 30.4186 43.1668 32.9238L40.7029 35.1734L40.6969 35.1706C39.7648 34.097 38.6257 33.2514 37.5239 32.4337C36.9769 32.0279 36.4111 31.6079 35.8813 31.1672C35.1465 30.5568 34.6004 30.5396 33.794 31.1019C33.3536 31.4163 32.9529 31.7826 32.6004 32.1931C31.8146 33.0893 31.0256 34.0088 30.2627 34.8976C29.6431 35.6198 29.0219 36.3405 28.3992 37.0595C27.8164 37.7293 27.2302 38.3964 26.6406 39.0606C25.8844 39.9169 25.1025 40.8024 24.3441 41.6834C24.0191 42.0464 23.7626 42.4654 23.5871 42.9203C23.5454 43.0953 23.5439 43.2774 23.5826 43.4532C23.6213 43.629 23.6992 43.7936 23.8105 43.9349C23.8816 44.0199 23.9708 44.088 24.0716 44.1341C24.1724 44.1802 24.2822 44.2033 24.3929 44.2015C24.6065 44.1958 24.8141 44.1299 24.9919 44.0115C25.1355 43.9191 25.2672 43.8092 25.384 43.6847L26.0374 42.9989C28.3317 40.5938 30.704 38.107 33.0296 35.6535C33.4162 35.2457 33.7941 34.8163 34.1943 34.3615C34.3514 34.1832 34.514 33.9984 34.6844 33.8057C34.9677 34.1033 35.2473 34.3979 35.5232 34.6899C36.3561 35.5694 37.143 36.4006 37.9594 37.2267C38.3407 37.614 38.7733 37.9474 39.245 38.2178C39.8915 38.5838 40.5092 38.5867 41.0303 38.2263C41.4478 37.9465 41.8503 37.6454 42.2366 37.3239L43.4345 36.2983C46.0349 34.0723 48.7235 31.7705 51.3471 29.4819C52.4079 28.5556 53.3976 27.5652 54.3089 26.6349Z" fill="url(#paint2_linear_368_592)"/>
<defs>
<linearGradient id="paint0_linear_368_592" x1="-22.9258" y1="-46.5333" x2="53.6215" y2="87.4528" gradientUnits="userSpaceOnUse">
<stop stop-color="#9368FE"/>
<stop offset="1" stop-color="#3C57FF"/>
</linearGradient>
<linearGradient id="paint1_linear_368_592" x1="29.3514" y1="18.293" x2="38.5673" y2="66.7949" gradientUnits="userSpaceOnUse">
<stop stop-color="#F5F4FF"/>
<stop offset="1" stop-color="#F4F6FF"/>
</linearGradient>
<linearGradient id="paint2_linear_368_592" x1="31.6978" y1="24" x2="34.4967" y2="47.152" gradientUnits="userSpaceOnUse">
<stop stop-color="#F5F4FF"/>
<stop offset="1" stop-color="#F4F6FF"/>
</linearGradient>
</defs>
</svg>
