<svg width="34" height="34" viewBox="0 0 34 34" fill="none" xmlns="http://www.w3.org/2000/svg">
<g clip-path="url(#clip0_368_4331)">
<path d="M29.0203 4.97927C25.9423 1.90194 21.6971 0 16.9998 0C12.3025 0 8.05734 1.90194 4.97927 4.97927C1.90161 8.05767 0 12.3122 0 16.9998C0 21.6972 1.90161 25.9423 4.97927 29.0207C8.05734 32.0983 12.3025 34 16.9998 34C21.6971 34 25.9423 32.0983 29.0203 29.0207C32.098 25.9423 34 21.6972 34 16.9998C34 12.3122 32.098 8.05767 29.0203 4.97927Z" fill="#6F61FE"/>
<path fill-rule="evenodd" clip-rule="evenodd" d="M26.4067 12.2658C26.1527 12.0777 25.2397 12.0777 24.3361 12.0777C23.4135 12.0965 22.4909 12.0965 22.2743 12.1813C22.0771 12.2564 21.6346 13.3296 21.0606 14.4306C20.4012 15.6737 19.6016 16.8783 19.093 16.8588C18.4248 16.8588 18.5851 14.8164 18.632 13.3014C18.6411 12.3127 18.4812 11.9925 18.3401 11.9084C17.9918 11.6633 17.0318 11.4286 17.0318 11.4286C17.0318 11.4286 14.1509 11.2116 13.7466 12.4542C14.3018 12.5296 15.2432 12.3596 14.8761 16.2094C14.8479 16.3982 14.4336 17.9793 13.0969 15.8424C12.7579 15.3063 11.4782 12.0964 11.0263 12.0777C9.5478 12.0492 8.08002 11.9835 7.57208 12.2658C7.09163 12.5484 8.21177 14.7508 10.1039 17.7068C11.6378 20.1351 13.2665 22.0179 16.0904 22.4883C16.6268 22.5452 18.0014 22.6009 18.4439 22.3944C18.7352 22.2529 18.3681 20.1635 19.3756 19.956C19.8181 19.8716 21.54 22.1403 22.1894 22.3944C22.5857 22.5543 23.4513 22.62 24.3361 22.5822C25.2963 22.5543 26.3876 22.6768 26.4912 22.0179C26.7269 20.5777 23.5834 18.6944 23.4983 17.81C23.4229 17.17 24.6469 15.9936 25.2677 15.0897C26.0393 13.9977 26.8872 12.6802 26.4067 12.2658Z" fill="white"/>
</g>
<defs>
<clipPath id="clip0_368_4331">
<rect width="34" height="34" fill="white"/>
</clipPath>
</defs>
</svg>
