<svg width="34" height="34" viewBox="0 0 34 34" fill="none" xmlns="http://www.w3.org/2000/svg">
<g clip-path="url(#clip0_368_4327)">
<path d="M17.3758 8.14551C12.6973 8.14551 8.89242 11.9501 8.89063 16.6265C8.88994 18.2291 9.33841 19.7899 10.1874 21.1402L10.3891 21.4611L9.53227 24.5909L12.7424 23.7489L13.052 23.9326C14.3543 24.7054 15.8471 25.1143 17.3689 25.1149H17.3724C22.0473 25.1149 25.8521 21.31 25.854 16.6332C25.8549 14.367 24.9735 12.236 23.3722 10.6328C21.7708 9.02968 19.6412 8.1462 17.3758 8.14551ZM22.3647 20.2731C22.1523 20.8686 21.1335 21.4123 20.6436 21.4854C20.2043 21.5512 19.6485 21.5785 19.0377 21.3844C18.6674 21.2669 18.1924 21.11 17.5841 20.8473C15.0263 19.7428 13.3557 17.1675 13.2283 16.9973C13.1009 16.8271 12.1871 15.6147 12.1871 14.3596C12.1871 13.1047 12.8459 12.4877 13.0796 12.2324C13.3132 11.9773 13.5895 11.9134 13.7595 11.9134C13.9295 11.9134 14.0996 11.915 14.2481 11.9224C14.4046 11.9303 14.6149 11.8629 14.8219 12.3601C15.0343 12.8707 15.5443 14.1257 15.6081 14.2534C15.6718 14.381 15.7143 14.5299 15.6293 14.7001C15.5443 14.8701 15.5019 14.9766 15.3744 15.1254C15.2469 15.2743 15.1066 15.4578 14.9919 15.5721C14.8642 15.6993 14.7313 15.8373 14.88 16.0924C15.0288 16.3478 15.5405 17.1827 16.2986 17.8589C17.2724 18.7275 18.0941 18.9967 18.349 19.1244C18.604 19.2521 18.7528 19.2306 18.9015 19.0606C19.0502 18.8904 19.5389 18.316 19.7089 18.0608C19.8788 17.8056 20.0488 17.8482 20.2825 17.9332C20.5162 18.0184 21.7699 18.6351 22.0248 18.7627C22.2798 18.8904 22.4498 18.9542 22.5135 19.0606C22.5772 19.1669 22.5772 19.6774 22.3647 20.2731Z" fill="#6F61FE"/>
<path d="M17.0007 0C7.61175 0 0 7.61037 0 16.9993C0 26.3882 7.61175 34 17.0007 34C26.3889 34 34.0007 26.3882 34.0007 16.9993C34.0007 7.61037 26.3889 0 17.0007 0ZM17.3738 26.8393C17.3734 26.8393 17.374 26.8393 17.3738 26.8393H17.3696C15.6617 26.8387 13.9834 26.4102 12.493 25.5973L7.0834 27.0163L8.53114 21.7284C7.63813 20.1808 7.16825 18.4254 7.16901 16.6268C7.17122 11.0004 11.7491 6.42291 17.3737 6.42291C20.1035 6.42402 22.6657 7.48672 24.5923 9.41559C26.5189 11.3444 27.5794 13.9082 27.5784 16.6349C27.576 22.2613 22.9978 26.8393 17.3738 26.8393Z" fill="#6F61FE"/>
</g>
<defs>
<clipPath id="clip0_368_4327">
<rect width="34" height="34" fill="white"/>
</clipPath>
</defs>
</svg>
