<svg width="34" height="34" viewBox="0 0 34 34" fill="none" xmlns="http://www.w3.org/2000/svg">
<path d="M17 0C7.61113 0 0 7.61113 0 17C0 26.3889 7.61113 34 17 34C26.3889 34 34 26.3889 34 17C34 7.61113 26.3889 0 17 0ZM24.8798 11.5614C24.624 14.2495 23.517 20.7728 22.9536 23.7835C22.7153 25.0575 22.246 25.4846 21.7918 25.5264C20.8047 25.6173 20.0549 24.874 19.0987 24.2472C17.6025 23.2664 16.7573 22.6559 15.3049 21.6988C13.6265 20.5928 14.7145 19.9851 15.6711 18.9911C15.9214 18.7311 20.2711 14.7747 20.3553 14.4158C20.3658 14.3709 20.3759 14.2033 20.2762 14.1153C20.1765 14.0273 20.0301 14.0571 19.9242 14.081C19.7742 14.1151 17.3839 15.695 12.7535 18.8206C12.0751 19.2864 11.4606 19.5134 10.91 19.5015C10.303 19.4884 9.13538 19.1584 8.26735 18.8762C7.20272 18.5301 6.35656 18.3472 6.43025 17.7594C6.46864 17.4533 6.89021 17.1402 7.69497 16.8203C12.6508 14.6612 15.9555 13.2376 17.609 12.5498C22.33 10.5861 23.311 10.245 23.9505 10.2336C24.0911 10.2313 24.4056 10.2661 24.6092 10.4314C24.7447 10.5491 24.831 10.7134 24.8512 10.8917C24.8857 11.1132 24.8953 11.3378 24.8798 11.5614Z" fill="#6F61FE"/>
</svg>
