<svg width="64" height="68" viewBox="0 0 64 68" fill="none" xmlns="http://www.w3.org/2000/svg">
<g opacity="0.8" clip-path="url(#clip0_368_4214)">
<path d="M23.855 9.03117C23.9472 7.29902 24.0381 5.59495 24.1432 3.62231C23.2249 3.62231 22.4126 3.6535 21.6035 3.61504C20.3237 3.55442 19.8486 3.20349 19.7858 2.35887C19.7193 1.46263 20.2814 0.899975 21.5067 0.722251C22.1545 0.640481 22.8064 0.594254 23.4593 0.583713C28.3195 0.416496 33.1801 0.254859 38.041 0.0987309C38.3358 0.0876743 38.6309 0.112744 38.9195 0.1735C39.9599 0.400072 40.5495 1.07429 40.5405 1.99027C40.5363 2.44068 40.3681 2.87415 40.0674 3.20958C39.7664 3.54499 39.3533 3.7593 38.9056 3.81248C38.0979 3.94655 37.268 3.94551 36.3257 4.01341V8.75312C41.5008 9.26477 45.8679 11.721 50.2724 14.6733C51.3374 13.8031 52.4663 12.9641 53.4978 12.0204C56.4877 9.28874 58.1378 9.48401 60.3229 12.5312C60.8829 13.2228 61.4898 13.8752 62.1389 14.4839C63.8162 16.2459 63.8589 17.614 62.2114 19.4411C61.1037 20.6696 59.9288 21.838 58.7512 23.0676C59.5272 24.4779 60.3117 25.8571 61.0536 27.2595C65.2824 35.2527 64.677 47.1449 57.8306 54.8898C52.1303 61.3392 45.1351 65.2312 36.7512 66.8075C28.8016 68.3012 21.1756 67.1286 13.8176 63.946C8.69203 61.729 5.16738 57.8097 3.2325 52.7236C-0.660814 42.4895 -0.0181834 32.4201 5.16492 22.7036C7.15113 18.9803 10.2558 16.329 13.6618 14.0165C15.6307 12.7013 17.6794 11.5096 19.7962 10.4483C21.0392 9.81498 22.4459 9.50964 23.855 9.03117ZM6.10275 39.9916C6.0979 43.234 6.61395 46.4562 7.63113 49.5353C9.44323 54.9054 12.7837 58.8075 18.3056 60.5838C30.709 64.5733 41.9881 62.6448 51.7613 53.8561C59.0285 47.3212 60.517 37.6393 55.756 29.1265C51.9489 22.3183 46.2067 17.7387 38.8841 15.1559C35.5106 13.9851 31.9344 13.5103 28.3719 13.7602C24.1221 14.0263 20.3258 15.6657 16.7284 17.8021C12.9573 19.9991 10.0256 23.3875 8.39587 27.433C6.76825 31.3475 6.27993 35.4162 6.10275 39.9916ZM27.9696 3.90602C28.0618 5.46499 28.1503 6.95861 28.2384 8.44826H32.1796C32.4078 6.91942 32.6235 5.47571 32.8579 3.90602H27.9696ZM59.9144 16.9249L57.1858 13.8828L53.884 17.3843L56.0872 19.8246L59.9144 16.9249Z" fill="white"/>
<path d="M33.5083 36.6681C35.9315 36.7325 38.2319 36.7818 40.5313 36.8624C41.2398 36.8611 41.9466 36.9377 42.6385 37.0908C43.0533 37.1691 43.4278 37.3884 43.6987 37.7112C43.9699 38.0345 44.1204 38.4412 44.125 38.8628C44.1364 39.3132 43.9928 39.7535 43.7185 40.111C43.4445 40.4686 43.0557 40.7215 42.6177 40.8278C41.9945 41.019 41.3442 41.1067 40.6925 41.0876C37.4942 40.93 34.2988 40.7135 31.1022 40.5205C29.6962 40.4356 29.0164 39.8692 28.8607 38.5081C28.8075 37.8585 28.8236 37.2054 28.9089 36.5597C29.3115 32.6122 29.7276 28.6664 30.1574 24.7221C30.2359 24.0759 30.3547 23.4353 30.5133 22.804C30.6964 22.0366 31.1674 21.5415 32.0001 21.5221C32.9364 21.5006 33.4116 22.0643 33.5697 22.9078C33.7045 23.5446 33.7742 24.1933 33.7778 24.844C33.7084 28.279 33.6006 31.7136 33.5094 35.1483C33.4986 35.5595 33.5083 35.9707 33.5083 36.6681Z" fill="white"/>
</g>
<defs>
<clipPath id="clip0_368_4214">
<rect width="64" height="67.5556" fill="white"/>
</clipPath>
</defs>
</svg>
