<svg width="68" height="64" viewBox="0 0 68 64" fill="none" xmlns="http://www.w3.org/2000/svg">
<g opacity="0.8" clip-path="url(#clip0_368_4222)">
<path d="M61.2191 5.40496C58.8652 5.7284 56.9103 5.98118 54.9608 6.27059C53.6463 6.46577 52.3416 6.72781 51.0276 6.92785C50.5651 7.02111 50.0897 7.03373 49.6223 6.96519C49.0428 6.84637 48.5303 6.46091 48.5409 5.81606C48.5369 5.35451 48.7007 4.90739 49.0013 4.55729C49.4365 4.19272 49.9489 3.93215 50.4997 3.79529C51.5008 3.50387 52.5301 3.30949 53.5484 3.07864C56.7868 2.34035 60.0256 1.60198 63.2644 0.863508C65.7556 0.292079 67.2007 1.21944 67.3538 3.76487C67.4902 6.03688 67.3847 8.32614 67.3229 10.6061C67.2616 12.8861 67.1393 15.1627 67.0064 17.439C66.9411 18.0378 66.84 18.6323 66.7045 19.2192C65.9101 19.3944 65.5993 19.0193 65.4669 18.5516C65.1063 17.2741 64.7885 15.9838 64.4879 14.6904C64.2311 13.5884 64.024 12.4752 63.7349 11.0769C63.1435 11.6878 62.6443 12.0878 62.2872 12.5892C58.8714 17.3924 55.4895 22.2195 52.0764 27.0246C50.4799 29.2723 48.856 31.5003 47.2048 33.7083C46.5975 34.5592 45.9059 35.3463 45.1401 36.0575C43.8665 37.1846 42.4302 37.2289 40.9414 36.2612C40.1477 35.7455 39.4363 35.1035 38.686 34.5183C36.4421 32.7712 34.1659 31.0726 31.5254 29.6658C31.0384 30.1095 30.5759 30.5795 30.1405 31.0738C26.3691 35.8475 22.6078 40.6292 18.8566 45.4188C17.2104 47.5105 15.5791 49.615 13.8796 51.663C13.2735 52.3904 12.5701 53.0308 11.7893 53.5658C10.8306 54.2212 10.3459 53.9921 9.23047 52.5709C9.42265 52.0761 9.65596 51.5985 9.92789 51.1421C15.6497 42.9652 21.3835 34.7963 27.1294 26.6358C29.5544 23.1996 30.8694 22.8644 34.5079 24.8904C36.6619 26.0904 38.696 27.5047 40.7784 28.8315C41.3322 29.1846 41.8649 29.5706 42.5415 30.0335L61.2191 5.40496Z" fill="white"/>
<path d="M63.6202 62.8581C63.5875 62.7389 63.5672 62.6166 63.5482 62.5036C63.4975 62.2075 63.4498 61.9281 63.2141 61.8138C62.6032 61.5229 61.9663 61.2907 61.3113 61.1204C56.9898 59.9609 52.4899 59.7066 48.25 59.5455C47.4048 59.5133 46.56 59.4806 45.7152 59.4471C38.223 59.1523 30.4754 58.8473 22.8396 59.3213C18.3717 59.598 13.8254 59.832 9.42882 60.058C8.20408 60.1211 6.97943 60.1846 5.75492 60.2478C5.46131 60.2557 5.16757 60.2403 4.87644 60.2019L4.64661 60.1789C4.62666 60.1047 4.60636 60.035 4.58725 59.9692C4.53265 59.8209 4.5021 59.6647 4.49676 59.5067C4.65036 57.5041 4.80935 55.5016 4.97381 53.4995C5.22133 50.4355 5.47742 47.2668 5.69837 44.1476C6.49431 32.9142 6.56449 23.0114 5.91333 13.8731C5.60242 9.77374 4.88946 5.71486 3.78474 1.75513C3.66504 1.38737 3.49189 1.03919 3.27084 0.721925C3.18691 0.588209 3.10415 0.456325 3.03192 0.324323L2.91514 0.109619L2.68534 0.191929C1.56366 0.593355 1.56793 1.43232 1.57193 2.04488V2.17882C1.55594 6.74684 1.54452 11.3145 1.53767 15.8819C1.53567 16.9831 1.54138 18.0842 1.5468 19.1854C1.55794 21.3765 1.56936 23.6426 1.51826 25.8674C1.36952 32.4445 1.17396 38.7943 0.93387 46.4101C0.821672 49.9658 0.674644 53.6103 0.496786 57.2415C0.423129 58.7462 0.431958 60.7302 1.16081 62.734L1.18935 62.8113L1.25445 62.8616C2.64049 63.9403 4.04197 63.9447 5.16881 63.939C6.62271 63.939 8.07679 63.9355 9.53105 63.9289C11.2154 63.924 12.8998 63.92 14.5842 63.9187C25.3631 63.9209 36.1418 63.9267 46.9206 63.935H48.8225C49.7013 63.935 50.5805 63.939 51.4606 63.9465C52.3738 63.9518 53.3034 63.9576 54.2369 63.9576C55.1912 63.9576 56.1498 63.9518 57.101 63.9337C59.2179 63.8763 61.3255 63.6349 63.4004 63.2112L63.7018 63.1542L63.6202 62.8581Z" fill="white"/>
</g>
<defs>
<clipPath id="clip0_368_4222">
<rect width="67.531" height="64" fill="white"/>
</clipPath>
</defs>
</svg>
