<svg width="40" height="53" viewBox="0 0 40 53" fill="none" xmlns="http://www.w3.org/2000/svg">
<path d="M20 0C8.95521 0 0 8.89876 0 19.8739C0 27.8866 2.80938 30.1245 17.9479 51.931C18.9407 53.3563 21.0635 53.3563 22.0562 51.931C37.1875 30.1214 40 27.8856 40 19.8739C40 8.89876 31.0417 0 20 0ZM20 28.0616C15.4031 28.0616 11.6667 24.3476 11.6667 19.7808C11.6667 15.2139 15.4062 11.5 20 11.5C24.5938 11.5 28.3333 15.2139 28.3333 19.7808C28.3333 24.3476 24.5938 28.0616 20 28.0616Z" fill="url(#paint0_linear_368_4322)"/>
<defs>
<linearGradient id="paint0_linear_368_4322" x1="-49" y1="-99.8167" x2="54.9767" y2="36.4902" gradientUnits="userSpaceOnUse">
<stop stop-color="#9368FE"/>
<stop offset="1" stop-color="#3C57FF"/>
</linearGradient>
</defs>
</svg>
