<svg width="51" height="44" viewBox="0 0 51 44" fill="none" xmlns="http://www.w3.org/2000/svg">
<path d="M23.0943 2.73778C17.0641 8.21333 14.0491 13.8193 14.0491 19.5556C14.0491 25.1615 16.3585 29.5941 20.9774 32.8533C20.8491 35.9822 19.7585 38.6548 17.7057 40.8711C15.7811 42.957 13.4075 44 10.5849 44C3.5283 44 0 40.0889 0 32.2667C0 26.9215 1.92453 21.12 5.77358 14.8622C9.75094 8.47408 14.8189 3.52 20.9774 0L23.0943 2.73778ZM51 2.73778C44.9698 8.21333 41.9547 13.8193 41.9547 19.5556C41.9547 25.1615 44.2641 29.5941 48.883 32.8533C48.7547 35.9822 47.6642 38.6548 45.6113 40.8711C43.6868 42.957 41.3132 44 38.4906 44C31.434 44 27.9057 40.0889 27.9057 32.2667C27.9057 26.9215 29.8302 21.12 33.6792 14.8622C37.6566 8.47408 42.7245 3.52 48.883 0L51 2.73778Z" fill="url(#paint0_linear_368_4231)"/>
<defs>
<linearGradient id="paint0_linear_368_4231" x1="-62.475" y1="-82.8667" x2="8.8418" y2="60.7177" gradientUnits="userSpaceOnUse">
<stop stop-color="#9368FE"/>
<stop offset="1" stop-color="#3C57FF"/>
</linearGradient>
</defs>
</svg>
