<svg width="208" height="67" viewBox="0 0 208 67" fill="none" xmlns="http://www.w3.org/2000/svg">
<g clip-path="url(#clip0_368_4189)">
<path d="M129.015 61.2786C148.672 61.6756 163.652 61.3604 178.527 58.7215C183.878 57.6616 189.165 56.1755 194.355 54.2727C196.696 53.3543 198.887 51.9476 200.83 50.1158C204.054 47.2434 204.265 44.0674 201.446 40.6929C199.541 38.4333 197.434 36.4397 195.163 34.7495C189.313 30.2891 182.886 27.2882 176.401 24.4975C160.397 17.7952 143.905 12.9473 127.148 10.0186C108.179 6.45046 88.9809 4.99651 69.7936 5.67492C55.6351 6.1038 41.5153 7.66404 27.5258 10.3455L3.84706 15.0395C3.74122 15.0395 3.64501 15.0395 3.53917 15.1096C1.47052 15.4482 0.248579 14.7943 0.0369031 13.2413C-0.174772 11.6883 0.768145 10.6958 2.8849 10.2054C16.3552 7.09946 29.8831 3.88841 43.5843 2.24202C58.2848 0.386898 73.0693 -0.303481 87.8437 0.17527C112.895 1.01415 137.778 5.40715 161.988 13.2647C171.635 16.2459 181.036 20.2952 190.073 25.3616C194.223 27.8572 198.225 30.6974 202.052 33.8621C203.721 35.3154 205.156 37.1281 206.286 39.21C208.855 43.6937 208.595 48.6446 205.324 52.4628C203.396 54.6831 201.203 56.5373 198.819 57.9625C193.268 61.3604 187.197 62.8082 181.096 63.8708C161.507 67.2687 141.831 67.5372 122.106 66.3229C114.111 65.8325 106.115 65.4004 98.1389 64.6648C87.8052 63.719 77.4716 62.7148 67.1765 61.2903C57.5164 59.9825 47.8563 58.3828 38.2636 56.3394C32.8314 55.0672 27.4785 53.3388 22.2436 51.1667C19.7159 50.1362 17.3506 48.5924 15.2487 46.6012C10.6014 42.2926 10.3513 36.3258 14.3346 31.0831C16.7269 28.1528 19.6161 25.8897 22.8016 24.4508C29.851 21.0145 37.1921 18.5357 44.6908 17.0595C55.007 14.8068 65.5047 14.0231 75.9707 14.7242C78.5781 14.8877 79.7616 15.7635 79.6365 17.4682C79.5114 19.173 78.4242 19.8035 75.961 19.8035C69.707 20.0604 63.4529 20.0487 57.1989 20.6326C46.5415 21.5292 36.0459 24.282 26.0345 28.8062C23.7297 29.8424 21.5388 31.2189 19.511 32.9046C14.8831 36.8163 15.0562 40.6695 19.9729 43.8806C22.3299 45.3879 24.8013 46.6157 27.3527 47.547C35.3132 50.4773 43.4875 52.4715 51.7627 53.502C67.4555 55.6388 83.1773 57.6822 98.9086 59.3403C110.474 60.4496 122.077 60.8349 129.015 61.2786Z" fill="url(#paint0_linear_368_4189)"/>
</g>
<defs>
<linearGradient id="paint0_linear_368_4189" x1="-53.7284" y1="-39.5586" x2="-24.9942" y2="107.288" gradientUnits="userSpaceOnUse">
<stop stop-color="#9368FE"/>
<stop offset="1" stop-color="#4F5BFD"/>
</linearGradient>
<clipPath id="clip0_368_4189">
<rect width="208" height="67" fill="white"/>
</clipPath>
</defs>
</svg>
