<svg width="25" height="595" viewBox="0 0 25 595" fill="none" xmlns="http://www.w3.org/2000/svg">
<path d="M13.0096 499C16.2492 507.473 21.5657 517.07 21.5657 526.352C21.5657 535.217 18.3802 541.841 14.8577 549.693C10.6158 559.149 9.2697 571.039 13.0096 580.872C14.7743 585.511 16.8066 590.096 19.9572 593.98" stroke="#ADB9FF" stroke-width="2" stroke-linecap="round" stroke-dasharray="12 12"/>
<path d="M13.4553 1C18.1889 24.413 23.0903 36.2485 23.9195 60.0909C25.4652 104.53 4.23129 132.473 4.55698 176.936C4.90051 223.835 24.1281 246.881 23.9195 293.781C23.701 342.897 -3.00145 373.777 1.51427 425.866C3.90461 453.439 12 466.508 12 501" stroke="#ADB9FF" stroke-width="2" stroke-dasharray="12 12"/>
<path d="M19.7735 579.954C19.7735 583.036 19.6963 586.129 19.6963 589.216C19.6963 590 19.7821 590.765 19.9279 591.537C20.0163 592.005 20.2368 592.53 20.2368 593.004" stroke="#ADB9FF" stroke-width="2" stroke-linecap="round"/>
<path d="M9 586C9.04529 586.226 9.34597 586.397 9.51909 586.511C10.1123 586.901 10.7373 587.245 11.3595 587.587C13.458 588.74 15.5383 589.851 17.5285 591.191C18.1733 591.625 19.5275 592.148 19.828 592.967C19.9287 593.242 19.997 593.554 20.1197 593.799" stroke="#ADB9FF" stroke-width="2" stroke-linecap="round"/>
<path d="M18.9909 592.826C18.9691 592.607 18.789 592.327 18.7003 592.131C17.6635 589.844 16.1596 588.545 15 586C14.3083 584.482 13.5 582 13.5 582" stroke="#ADB9FF" stroke-width="2" stroke-linecap="round"/>
</svg>
