<svg width="230" height="181" viewBox="0 0 230 181" fill="none" xmlns="http://www.w3.org/2000/svg">
<path d="M218.202 12.6934C218.202 12.6934 225.305 58.991 200.688 90.1971C185.299 109.704 167.787 118.893 144.426 126.57C128.304 131.867 100.02 129.453 100.02 129.453C100.02 129.453 87.4799 127.206 81.9103 120.671C75.6706 113.35 77.5623 104.831 83.2717 97.8213C88.9811 90.8119 100.447 89.0115 108.084 92.8908C114.792 96.2986 118.998 104.711 120.643 111.043C124.095 124.332 117.785 137.299 103.372 145.034C92.8148 150.701 78.2483 152.719 61.6238 154.38C46.6673 155.874 27.8887 154.204 23.136 154.038C18.3833 153.872 10.7668 153.419 12.0303 150.966C14.2687 148.923 26.1391 146.814 29.4558 146.159C30.9897 145.857 22.6643 147.314 21.5274 147.768C18.7619 148.875 6.96988 150.245 11.4721 154.907C13.1914 156.687 14.9848 159.302 16.514 161.281C17.0557 161.981 21.5307 167.467 20.9994 167.469" stroke="#ADB9FF" stroke-width="2" stroke-linecap="round" stroke-dasharray="12 12"/>
<path d="M12.769 150.924C13.4155 150.729 16.9246 148.831 17.583 148.686C18.4928 148.486 19.3683 148.184 20.2722 147.963C21.7827 147.594 28.6109 146.308 28.6109 146.308" stroke="#ADB9FF" stroke-width="2" stroke-linecap="square"/>
<path d="M11.2109 154.611C13.1902 157.472 17.2367 161.886 19.048 164.838C19.1029 164.927 17.7827 163.75 19.2698 165.141" stroke="#ADB9FF" stroke-width="2" stroke-linecap="square"/>
</svg>
