<svg width="14" height="10" viewBox="0 0 14 10" fill="none" xmlns="http://www.w3.org/2000/svg">
<path d="M1.75 4.125H10.15L8.12875 2.10375C7.95638 1.93138 7.875 1.72575 7.875 1.5C7.875 1.0695 8.23069 0.625 8.75 0.625C8.98231 0.625 9.18488 0.709437 9.35375 0.87875L12.8354 4.36037C12.9789 4.50388 13.125 4.68106 13.125 5C13.125 5.31894 13.0029 5.4725 12.8424 5.63306L9.35375 9.12125C9.18488 9.29056 8.98231 9.375 8.75 9.375C8.23025 9.375 7.875 8.9305 7.875 8.5C7.875 8.27425 7.95638 8.06863 8.12875 7.89625L10.15 5.875H1.75C1.267 5.875 0.875 5.483 0.875 5C0.875 4.517 1.267 4.125 1.75 4.125Z" fill="#3C57FF"/>
</svg>
